<svg width="150" height="200" viewBox="0 0 150 200" fill="none" xmlns="http://www.w3.org/2000/svg">
<g clip-path="url(#clip0_1_482)">
<rect width="150" height="200" rx="20" fill="white"/>
<rect width="150" height="200" fill="white"/>
<path d="M60.8 121.3C59.8 122.833 58.6 123.767 57.2 124.1C55.8667 124.433 54.5667 124.333 53.3 123.8C52.0333 123.267 50.9667 122.4 50.1 121.2C49.3 119.933 48.9667 118.5 49.1 116.9C49.1667 115.833 49.4333 114.667 49.9 113.4C50.3667 112.133 50.9333 110.933 51.6 109.8C52.3333 108.6 53.1 107.5 53.9 106.5C54.7667 105.433 55.6333 104.533 56.5 103.8C58.1 102.533 59.9 101.433 61.9 100.5C63.9667 99.5667 66.1 98.8667 68.3 98.4C70.5667 97.9333 72.8 97.7333 75 97.8C77.2667 97.8667 79.3667 98.2 81.3 98.8C86.6333 100.467 90.7667 103.1 93.7 106.7C96.6333 110.3 98.1 114.967 98.1 120.7C98.1 123.433 97.8333 125.9 97.3 128.1C96.8333 130.233 95.9667 132.3 94.7 134.3C93.5 136.3 91.8667 138.333 89.8 140.4C87.8 142.467 85.3 144.733 82.3 147.2C81.3 148.067 80.2667 148.933 79.2 149.8C78.1333 150.667 77.0667 151.533 76 152.4C75.6667 152.667 75.0333 153.067 74.1 153.6C73.1667 154.133 72.3333 154.667 71.6 155.2C70.8667 155.733 70.4333 156.233 70.3 156.7C70.1667 157.167 70.7 157.433 71.9 157.5C73.3667 157.633 74.5333 157.667 75.4 157.6C76.2667 157.533 77.4333 157.5 78.9 157.5C80.6333 157.5 82.3333 157.467 84 157.4C85.6667 157.333 87.3333 157.367 89 157.5C89.6667 157.567 90.4 157.6 91.2 157.6C92 157.533 92.8 157.533 93.6 157.6C94.4 157.6 95.1667 157.7 95.9 157.9C96.6333 158.033 97.2667 158.333 97.8 158.8C98.3333 159.267 98.7333 159.9 99 160.7C99.2667 161.5 99.4 162.367 99.4 163.3C99.4667 164.167 99.4 165.033 99.2 165.9C99 166.7 98.6667 167.333 98.2 167.8C97.3333 168.8 96.2667 169.3 95 169.3C93.7333 169.233 92.5333 169.2 91.4 169.2H55.5C54.8333 169.2 54.1 169.233 53.3 169.3C52.5667 169.367 51.9 169.3 51.3 169.1C50.1 168.767 49.5 168.133 49.5 167.2C49.5667 166.267 49.6 165.3 49.6 164.3C49.6 162.633 50 161.1 50.8 159.7C51.6 158.233 52.6 156.9 53.8 155.7C55.0667 154.433 56.4 153.267 57.8 152.2C59.2 151.133 60.5 150.1 61.7 149.1C63.4333 147.567 65.3 146.033 67.3 144.5C69.3 142.967 71.2 141.433 73 139.9C75.3333 137.967 77.3 136.2 78.9 134.6C80.5667 133 81.9 131.5 82.9 130.1C83.9 128.7 84.6333 127.333 85.1 126C85.5667 124.6 85.8 123.133 85.8 121.6C85.8 118.2 84.7667 115.6 82.7 113.8C80.6333 111.933 78 111 74.8 111C72.4667 111 70.2667 111.5 68.2 112.5C66.2 113.5 64.5333 114.967 63.2 116.9C62.8 117.633 62.4 118.4 62 119.2C61.6667 119.933 61.2667 120.633 60.8 121.3Z" fill="black"/>
<path d="M75.0046 54.2944C77.6451 70.0043 80.7855 71.9617 86.0119 77H63.4178C70.291 70.3243 73.217 65.7157 75.0046 54.2944Z" fill="#65E145"/>
<path d="M100.309 62.2201C96.4597 69.0974 87.2746 71.2015 79.7935 66.9199C72.3124 62.6382 69.3682 53.5921 73.2175 46.7149C77.0667 39.8376 86.2518 37.7334 93.7329 42.0151C101.214 46.2967 104.158 55.3428 100.309 62.2201Z" fill="#65E145"/>
<path d="M74.7377 19C82.5525 19 88.8876 25.4062 88.8876 33.3085C88.8876 41.2109 82.5525 47.6171 74.7377 47.6171C66.923 47.6171 60.5879 41.2109 60.5879 33.3085C60.5879 25.4062 66.923 19 74.7377 19Z" fill="#65E145"/>
<path d="M48.6911 62.2201C52.5403 69.0974 61.7254 71.2015 69.2065 66.9199C76.6876 62.6382 79.6318 53.5921 75.7825 46.7149C71.9333 39.8376 62.7482 37.7334 55.2671 42.0151C47.786 46.2967 44.8418 55.3428 48.6911 62.2201Z" fill="#65E145"/>
</g>
<defs>
<clipPath id="clip0_1_482">
<rect width="150" height="200" rx="20" fill="white"/>
</clipPath>
</defs>
</svg>
