<svg width="150" height="200" viewBox="0 0 150 200" fill="none" xmlns="http://www.w3.org/2000/svg">
<g clip-path="url(#clip0_1_510)">
<rect width="150" height="200" rx="20" fill="white"/>
<rect width="150" height="200" fill="white"/>
<path d="M92.7 114.2C92.1 113.8 91.4667 113.4 90.8 113C90.1333 112.533 89.4333 112.167 88.7 111.9C86.3667 110.967 83.8 110.467 81 110.4C78.2667 110.267 75.7 110.767 73.3 111.9C71.3667 112.833 69.7333 114 68.4 115.4C67.1333 116.8 66.1 118.367 65.3 120.1C64.5 121.833 63.9 123.667 63.5 125.6C63.1 127.533 62.8667 129.467 62.8 131.4C64.6 129.6 66.8 128 69.4 126.6C72 125.133 75.3333 124.4 79.4 124.4C82.8 124.4 85.9667 124.9 88.9 125.9C91.9 126.833 94.5 128.233 96.7 130.1C98.9 131.967 100.633 134.267 101.9 137C103.167 139.733 103.8 142.867 103.8 146.4C103.8 149.933 103.133 153.167 101.8 156.1C100.467 158.967 98.6333 161.467 96.3 163.6C94.0333 165.667 91.3 167.3 88.1 168.5C84.9667 169.633 81.5667 170.2 77.9 170.2C73.6333 170.2 69.9 169.567 66.7 168.3C63.5667 166.967 60.8333 165.167 58.5 162.9C57.1667 161.567 55.9667 160.1 54.9 158.5C53.9 156.833 53.0333 154.967 52.3 152.9C51.5667 150.767 51 148.333 50.6 145.6C50.2 142.867 50 139.733 50 136.2C50 133.267 50.2 130.3 50.6 127.3C51 124.3 51.6667 121.4 52.6 118.6C53.6 115.8 54.9 113.167 56.5 110.7C58.1 108.233 60.1 106.033 62.5 104.1C64.7667 102.3 67.2333 100.9 69.9 99.9C72.5667 98.9 75.3 98.3333 78.1 98.2C80.9 98.0667 83.7 98.3333 86.5 99C89.3 99.6667 91.9333 100.767 94.4 102.3C95.0667 102.7 95.8333 103.3 96.7 104.1C97.5667 104.833 98.3 105.667 98.9 106.6C99.5 107.533 99.8667 108.6 100 109.8C100.133 110.933 99.8 112.1 99 113.3C98.8667 113.567 98.5667 113.833 98.1 114.1C97.6333 114.367 97.1 114.567 96.5 114.7C95.9 114.833 95.2667 114.867 94.6 114.8C93.9333 114.733 93.3 114.533 92.7 114.2ZM77.2 136.4C74.9333 136.533 72.8 137.133 70.8 138.2C68.8 139.2 67.0667 140.567 65.6 142.3C64.6667 143.433 64.1333 144.733 64 146.2C63.8667 147.6 63.9667 149 64.3 150.4C64.5667 152.067 65.2333 153.533 66.3 154.8C67.3667 156 68.6 157 70 157.8C71.4667 158.533 73.0333 159.067 74.7 159.4C76.4333 159.667 78.1 159.7 79.7 159.5C81.5 159.3 83.1333 158.833 84.6 158.1C86.1333 157.3 87.4333 156.333 88.5 155.2C89.5667 154 90.3667 152.633 90.9 151.1C91.5 149.5 91.7 147.8 91.5 146C91.3 144.067 90.8 142.467 90 141.2C89.2 139.867 88.1667 138.833 86.9 138.1C85.6333 137.367 84.1667 136.9 82.5 136.7C80.8333 136.433 79.0667 136.333 77.2 136.4Z" fill="black"/>
<path d="M76.0046 54.2944C78.6451 70.0043 81.7855 71.9617 87.0119 77H64.4178C71.291 70.3243 74.217 65.7157 76.0046 54.2944Z" fill="#65E145"/>
<path d="M101.309 62.2201C97.4597 69.0974 88.2746 71.2015 80.7935 66.9199C73.3124 62.6382 70.3682 53.5921 74.2175 46.7149C78.0667 39.8376 87.2518 37.7334 94.7329 42.0151C102.214 46.2967 105.158 55.3428 101.309 62.2201Z" fill="#65E145"/>
<path d="M75.7377 19C83.5525 19 89.8876 25.4062 89.8876 33.3085C89.8876 41.2109 83.5525 47.6171 75.7377 47.6171C67.923 47.6171 61.5879 41.2109 61.5879 33.3085C61.5879 25.4062 67.923 19 75.7377 19Z" fill="#65E145"/>
<path d="M49.6911 62.2201C53.5403 69.0974 62.7254 71.2015 70.2065 66.9199C77.6876 62.6382 80.6318 53.5921 76.7825 46.7149C72.9333 39.8376 63.7482 37.7334 56.2671 42.0151C48.786 46.2967 45.8418 55.3428 49.6911 62.2201Z" fill="#65E145"/>
</g>
<defs>
<clipPath id="clip0_1_510">
<rect width="150" height="200" rx="20" fill="white"/>
</clipPath>
</defs>
</svg>
