<svg width="150" height="200" viewBox="0 0 150 200" fill="none" xmlns="http://www.w3.org/2000/svg">
<g clip-path="url(#clip0_1_517)">
<rect width="150" height="200" rx="20" fill="white"/>
<rect width="150" height="200" fill="white"/>
<path d="M52.2 99.9C53 99.5 53.9 99.2667 54.9 99.2C55.9 99.0667 56.9667 99 58.1 99H94.3C95.2333 99 96.2333 98.9667 97.3 98.9C98.3667 98.8333 99.3333 99.0333 100.2 99.5C101.4 100.167 102.1 101.233 102.3 102.7C102.5 104.1 102.367 105.7 101.9 107.5C101.5 109.233 100.867 111.1 100 113.1C99.1333 115.033 98.2333 116.9 97.3 118.7C96.3667 120.433 95.4667 122.033 94.6 123.5C93.7333 124.9 93.1333 125.967 92.8 126.7C91.7333 128.7 90.7333 130.533 89.8 132.2C88.9333 133.867 88.0667 135.533 87.2 137.2C86.4 138.867 85.5333 140.533 84.6 142.2C83.7333 143.867 82.7667 145.7 81.7 147.7C80.3667 150.433 78.8333 153.3 77.1 156.3C75.4333 159.233 73.8333 162 72.3 164.6C71.8333 165.4 71.3 166.2 70.7 167C70.1 167.8 69.4 168.467 68.6 169C67.8667 169.533 67 169.867 66 170C65.0667 170.133 64.0333 169.933 62.9 169.4C61.1667 168.467 60.0333 167.1 59.5 165.3C59.0333 163.5 59.2 161.833 60 160.3C61.2667 158.033 62.5 155.767 63.7 153.5C64.9 151.167 66.1 148.867 67.3 146.6C69.1 143.2 70.7667 139.933 72.3 136.8C73.9 133.667 75.6 130.4 77.4 127C77.9333 126 78.6667 124.8 79.6 123.4C80.5333 121.933 81.4 120.433 82.2 118.9C83.0667 117.367 83.7333 115.867 84.2 114.4C84.7333 112.867 84.9 111.533 84.7 110.4C82.3667 110.2 80.2333 110.133 78.3 110.2C76.4333 110.2 74.3667 110.2 72.1 110.2H62.4C61.2 110.2 59.9 110.233 58.5 110.3C57.1667 110.367 55.9 110.3 54.7 110.1C53.5 109.833 52.4667 109.333 51.6 108.6C50.8 107.867 50.3 106.667 50.1 105C49.9667 103.6 50.1 102.5 50.5 101.7C50.9 100.9 51.4667 100.3 52.2 99.9Z" fill="black"/>
<path d="M76.0046 54.2944C78.6451 70.0043 81.7855 71.9617 87.0119 77H64.4178C71.291 70.3243 74.217 65.7157 76.0046 54.2944Z" fill="#65E145"/>
<path d="M101.309 62.2201C97.4597 69.0974 88.2746 71.2015 80.7935 66.9199C73.3124 62.6382 70.3682 53.5921 74.2175 46.7149C78.0667 39.8376 87.2518 37.7334 94.7329 42.0151C102.214 46.2967 105.158 55.3428 101.309 62.2201Z" fill="#65E145"/>
<path d="M75.7377 19C83.5525 19 89.8876 25.4062 89.8876 33.3085C89.8876 41.2109 83.5525 47.6171 75.7377 47.6171C67.923 47.6171 61.5879 41.2109 61.5879 33.3085C61.5879 25.4062 67.923 19 75.7377 19Z" fill="#65E145"/>
<path d="M49.6911 62.2201C53.5403 69.0974 62.7254 71.2015 70.2065 66.9199C77.6876 62.6382 80.6318 53.5921 76.7825 46.7149C72.9333 39.8376 63.7482 37.7334 56.2671 42.0151C48.786 46.2967 45.8418 55.3428 49.6911 62.2201Z" fill="#65E145"/>
</g>
<defs>
<clipPath id="clip0_1_517">
<rect width="150" height="200" rx="20" fill="white"/>
</clipPath>
</defs>
</svg>
