<svg width="150" height="200" viewBox="0 0 150 200" fill="none" xmlns="http://www.w3.org/2000/svg">
<g clip-path="url(#clip0_1_79)">
<rect width="150" height="200" rx="20" fill="white"/>
<rect width="150" height="200" fill="white"/>
<path d="M92 100.2C92.4667 100.933 92.7667 101.867 92.9 103C93.2333 105.333 93.3667 107.733 93.3 110.2C93.3 112.6 93.3333 114.967 93.4 117.3C93.4 120.033 93.4 122.733 93.4 125.4C93.4667 128.067 93.5 130.767 93.5 133.5V142H97.8C98.5333 142 99.3 142.1 100.1 142.3C100.9 142.433 101.633 142.7 102.3 143.1C102.967 143.5 103.533 144 104 144.6C104.467 145.2 104.733 145.933 104.8 146.8C104.8 148.933 104.133 150.4 102.8 151.2C101.467 151.933 99.8667 152.367 98 152.5C97.8667 152.5 97.5667 152.533 97.1 152.6C96.7 152.6 96.2333 152.6 95.7 152.6C95.1667 152.6 94.6667 152.6 94.2 152.6C93.8 152.6 93.5667 152.533 93.5 152.4V159.2C93.5 159.933 93.5 160.767 93.5 161.7C93.5 162.633 93.4333 163.567 93.3 164.5C93.1667 165.367 92.9 166.2 92.5 167C92.1667 167.8 91.6333 168.433 90.9 168.9C90.5667 169.1 90.1333 169.267 89.6 169.4C89.1333 169.467 88.6 169.533 88 169.6C87.4 169.667 86.8 169.7 86.2 169.7C85.6667 169.633 85.2 169.533 84.8 169.4C83.6 169 82.8333 168.167 82.5 166.9C82.1667 165.567 81.9333 164.333 81.8 163.2C81.8 163 81.8 162.367 81.8 161.3C81.8 160.167 81.8 159 81.8 157.8C81.8 156.533 81.7667 155.4 81.7 154.4C81.6333 153.4 81.5333 152.9 81.4 152.9H63.8C61.8667 152.9 59.8333 152.867 57.7 152.8C55.5667 152.733 53.7333 152.133 52.2 151C51 150.133 50.3 149.167 50.1 148.1C49.9 146.967 49.9667 145.867 50.3 144.8C50.7 143.667 51.2667 142.567 52 141.5C52.7333 140.433 53.4333 139.467 54.1 138.6C56.6333 135.2 59.0667 131.733 61.4 128.2C63.8 124.667 66.2 121.167 68.6 117.7C69.9333 115.9 71.3 114.167 72.7 112.5C74.1667 110.833 75.5333 109.1 76.8 107.3C77.7333 105.9 78.7333 104.467 79.8 103C80.9333 101.533 82.3333 100.4 84 99.6C85.6 98.8667 87.1333 98.5 88.6 98.5C90.0667 98.5 91.2 99.0667 92 100.2ZM82.1 118.2L65.5 141.6H82.1V118.2Z" fill="black"/>
<path d="M110 51C94.1619 42.8866 84.558 40.1916 75 16C70.7343 36.5421 60.3592 42.2229 40 51C64.1455 54.1911 70.1219 63.5415 75 86C82.5516 69.9369 82.4772 59.2442 110 51Z" fill="#4E9FFF" stroke="#3A95FF"/>
</g>
<defs>
<clipPath id="clip0_1_79">
<rect width="150" height="200" rx="20" fill="white"/>
</clipPath>
</defs>
</svg>
