<svg width="150" height="200" viewBox="0 0 150 200" fill="none" xmlns="http://www.w3.org/2000/svg">
<g clip-path="url(#clip0_1_95)">
<rect width="150" height="200" rx="20" fill="white"/>
<rect width="150" height="200" fill="white"/>
<path d="M75.3 169.9C73.3 169.9 71.2333 169.8 69.1 169.6C67.0333 169.4 65 169 63 168.4C61.0667 167.733 59.2333 166.833 57.5 165.7C55.8333 164.567 54.4333 163.1 53.3 161.3C52.0333 159.367 51.1333 157.3 50.6 155.1C50.1333 152.833 49.9667 150.533 50.1 148.2C50.4333 144.6 51.6333 141.533 53.7 139C55.8333 136.467 58.5 134.533 61.7 133.2C61.4333 133.2 61 133.033 60.4 132.7C59.8667 132.367 59.3 131.967 58.7 131.5C58.1 131.033 57.5333 130.6 57 130.2C56.5333 129.733 56.2 129.433 56 129.3C55.2 128.433 54.5333 127.433 54 126.3C53.5333 125.167 53.1333 124.033 52.8 122.9C51.9333 119.9 51.8333 116.767 52.5 113.5C53.1667 110.167 54.5333 107.267 56.6 104.8C57.4667 103.733 58.5667 102.8 59.9 102C61.2333 101.133 62.6667 100.433 64.2 99.9C65.7333 99.3 67.2667 98.8333 68.8 98.5C70.4 98.1667 71.8333 98 73.1 98C74.8333 98 76.5333 97.9667 78.2 97.9C79.8667 97.8333 81.5333 97.9333 83.2 98.2C85.2667 98.5333 87.1667 99.2 88.9 100.2C90.7 101.2 92.2667 102.433 93.6 103.9C96.2667 106.833 97.9667 110.133 98.7 113.8C99.5 117.4 99.4 121.1 98.4 124.9C98.0667 125.967 97.5667 126.967 96.9 127.9C96.2333 128.767 95.4667 129.6 94.6 130.4C94.4 130.533 94.0667 130.767 93.6 131.1C93.1333 131.433 92.6 131.8 92 132.2C91.4667 132.533 90.9333 132.833 90.4 133.1C89.8667 133.3 89.4667 133.367 89.2 133.3C90.8 134.3 92.3333 135.3 93.8 136.3C95.2667 137.233 96.4667 138.567 97.4 140.3C98.3333 142.033 99 143.867 99.4 145.8C99.8667 147.733 100.033 149.667 99.9 151.6C99.8333 153.533 99.4667 155.433 98.8 157.3C98.1333 159.1 97.1667 160.733 95.9 162.2C94.6333 163.667 93.1667 164.9 91.5 165.9C89.9 166.833 88.2 167.6 86.4 168.2C84.6 168.8 82.7333 169.233 80.8 169.5C78.9333 169.767 77.1 169.9 75.3 169.9ZM75.5 140.7C74.0333 140.767 72.5333 140.967 71 141.3C69.5333 141.633 68.1667 142.167 66.9 142.9C65.7 143.567 64.6667 144.5 63.8 145.7C62.9333 146.833 62.4 148.267 62.2 150C62.0667 151.333 62.2333 152.533 62.7 153.6C63.2333 154.6 63.9 155.5 64.7 156.3C65.5667 157.033 66.5667 157.633 67.7 158.1C68.8333 158.5 69.9667 158.767 71.1 158.9C73.7667 159.3 76.3333 159.267 78.8 158.8C79.7333 158.6 80.6 158.433 81.4 158.3C82.2667 158.1 83.0333 157.833 83.7 157.5C84.4333 157.167 85.0667 156.733 85.6 156.2C86.2 155.6 86.7 154.8 87.1 153.8C87.7 152.4 87.9333 150.833 87.8 149.1C87.7333 147.3 87.2 145.833 86.2 144.7C84.7333 142.967 83.1 141.833 81.3 141.3C79.5667 140.767 77.6333 140.567 75.5 140.7ZM75.6 109C74.0667 109.133 72.6 109.367 71.2 109.7C69.8 110.033 68.5667 110.567 67.5 111.3C66.4333 112.033 65.6 113 65 114.2C64.4667 115.4 64.2333 116.9 64.3 118.7C64.3667 119.967 64.5667 121.167 64.9 122.3C65.2333 123.367 65.8667 124.367 66.8 125.3C67.9333 126.633 69.3 127.433 70.9 127.7C72.5 127.9 74.1 127.967 75.7 127.9C78.1667 127.9 80.3 127.533 82.1 126.8C83.9667 126.067 85.4667 124.5 86.6 122.1C87.4667 120.167 87.7 118.367 87.3 116.7C86.9 115.033 86.1333 113.633 85 112.5C83.8667 111.3 82.4333 110.4 80.7 109.8C79.0333 109.133 77.3333 108.867 75.6 109Z" fill="black"/>
<path d="M110 51C94.1619 42.8866 84.558 40.1916 75 16C70.7343 36.5421 60.3592 42.2229 40 51C64.1455 54.1911 70.1219 63.5415 75 86C82.5516 69.9369 82.4772 59.2442 110 51Z" fill="#4E9FFF" stroke="#3A95FF"/>
</g>
<defs>
<clipPath id="clip0_1_95">
<rect width="150" height="200" rx="20" fill="white"/>
</clipPath>
</defs>
</svg>
