<svg width="150" height="200" viewBox="0 0 150 200" fill="none" xmlns="http://www.w3.org/2000/svg">
<g clip-path="url(#clip0_1_99)">
<rect width="150" height="200" rx="20" fill="white"/>
<rect width="150" height="200" fill="white"/>
<path d="M73 170.2C69.9333 170.2 66.9667 169.867 64.1 169.2C61.3 168.467 58.7333 167.067 56.4 165C55.5333 164.2 54.7 163.3 53.9 162.3C53.1667 161.233 52.6333 160.2 52.3 159.2C52.0333 158.133 52.0667 157.1 52.4 156.1C52.7333 155.033 53.5667 154.1 54.9 153.3C55.7667 152.767 56.5333 152.5 57.2 152.5C57.9333 152.5 58.6 152.667 59.2 153C59.8667 153.333 60.4667 153.8 61 154.4C61.6 154.933 62.2 155.467 62.8 156C64.3333 157.267 65.9667 158.1 67.7 158.5C69.5 158.9 71.3667 159.1 73.3 159.1C75.5 159.1 77.5333 158.567 79.4 157.5C81.2667 156.433 82.8333 155.033 84.1 153.3C85.4333 151.567 86.4 149.6 87 147.4C87.6 145.2 87.7333 143 87.4 140.8C85.4667 141.933 83.2667 142.833 80.8 143.5C78.3333 144.1 75.9667 144.4 73.7 144.4C70.1 144.4 66.8333 143.9 63.9 142.9C61.0333 141.833 58.5667 140.367 56.5 138.5C54.4333 136.567 52.8333 134.233 51.7 131.5C50.5667 128.767 50 125.733 50 122.4C50 118.933 50.6 115.733 51.8 112.8C53 109.8 54.7 107.233 56.9 105.1C59.1 102.9 61.7333 101.2 64.8 100C67.8667 98.7333 71.2667 98.1 75 98.1C79.2667 98.1 82.8333 98.7333 85.7 100C88.6333 101.2 91.3 103.033 93.7 105.5C96.1667 108.1 97.9667 111.5 99.1 115.7C100.3 119.9 100.9 125.433 100.9 132.3C100.9 137.9 100.267 143.033 99 147.7C97.8 152.367 96.0333 156.367 93.7 159.7C91.3667 163.033 88.4333 165.633 84.9 167.5C81.4333 169.3 77.4667 170.2 73 170.2ZM75.3 110.2C74.1 110.133 72.9 110.2 71.7 110.4C70.5667 110.533 69.5333 110.767 68.6 111.1C66.8 111.833 65.3667 113.033 64.3 114.7C63.2333 116.3 62.5667 118.067 62.3 120C62.0333 121.933 62.1667 123.867 62.7 125.8C63.3 127.733 64.3333 129.333 65.8 130.6C67.0667 131.8 68.5667 132.6 70.3 133C72.0333 133.4 73.7667 133.5 75.5 133.3C77.3 133.1 79 132.6 80.6 131.8C82.2 131 83.5333 129.967 84.6 128.7C85.6667 127.433 86.3667 126.1 86.7 124.7C87.1 123.233 87.1667 121.8 86.9 120.4C86.7 118.933 86.2333 117.567 85.5 116.3C84.7667 114.967 83.8667 113.8 82.8 112.8C81.8667 112.067 80.7333 111.5 79.4 111.1C78.1333 110.633 76.7667 110.333 75.3 110.2Z" fill="black"/>
<path d="M110 51C94.1619 42.8866 84.558 40.1916 75 16C70.7343 36.5421 60.3592 42.2229 40 51C64.1455 54.1911 70.1219 63.5415 75 86C82.5516 69.9369 82.4772 59.2442 110 51Z" fill="#4E9FFF" stroke="#3A95FF"/>
</g>
<defs>
<clipPath id="clip0_1_99">
<rect width="150" height="200" rx="20" fill="white"/>
</clipPath>
</defs>
</svg>
