<svg width="150" height="200" viewBox="0 0 150 200" fill="none" xmlns="http://www.w3.org/2000/svg">
<g clip-path="url(#clip0_1_107)">
<rect width="150" height="200" rx="20" fill="white"/>
<rect width="150" height="200" fill="white"/>
<path d="M101.9 102.7C102.567 103.567 102.9 104.433 102.9 105.3C102.967 105.7 102.967 106.2 102.9 106.8C102.9 107.4 102.867 107.867 102.8 108.2C102.6 108.867 102.133 109.533 101.4 110.2C101.2 110.4 100.967 110.6 100.7 110.8C100.433 110.933 100.1 111.067 99.7 111.2C99.3 111.333 98.9 111.433 98.5 111.5C98.1 111.5 97.6667 111.533 97.2 111.6C96.7333 111.667 96.3 111.733 95.9 111.8C95.5 111.8 95.0667 111.8 94.6 111.8H88.9V113.5C88.8333 119.5 88.9333 125.5 89.2 131.5C89.5333 137.5 89.5 143.5 89.1 149.5C88.9 151.5 88.6 153.567 88.2 155.7C87.8 157.767 87.1333 159.733 86.2 161.6C85.3333 163.4 84.1667 165.067 82.7 166.6C81.2333 168.133 79.3667 169.333 77.1 170.2C74.9667 171 72.6333 171.567 70.1 171.9C67.5667 172.233 65 172.267 62.4 172C59.8667 171.733 57.4333 171.167 55.1 170.3C52.7667 169.433 50.8 168.233 49.2 166.7C48.3333 165.9 47.5333 164.933 46.8 163.8C46.0667 162.6 45.5667 161.367 45.3 160.1C45.0333 158.767 45.1 157.5 45.5 156.3C45.9 155.033 46.8333 154 48.3 153.2C49.5667 152.467 50.7 152.3 51.7 152.7C52.7667 153.1 53.7667 153.733 54.7 154.6C55.7 155.467 56.7 156.367 57.7 157.3C58.7667 158.233 59.9333 158.833 61.2 159.1C63.9333 159.767 66.1667 159.8 67.9 159.2C69.6333 158.533 71 157.5 72 156.1C73 154.7 73.7 153 74.1 151C74.5667 149 74.8333 146.967 74.9 144.9C75.0333 142.833 75.0667 140.833 75 138.9C74.9333 136.967 74.9333 135.333 75 134C75.0667 130.467 75.0667 127 75 123.6C74.9333 120.2 74.9 116.733 74.9 113.2V112.8C74.9667 112.667 75 112.467 75 112.2H74.7C74.3 112.133 73.4667 112.1 72.2 112.1C70.9333 112.033 69.5667 112 68.1 112C66.6333 112 65.2333 112 63.9 112C62.6333 111.933 61.8 111.9 61.4 111.9H60V111.8C59.4667 111.733 58.9333 111.633 58.4 111.5C57.8667 111.367 57.3333 111.233 56.8 111.1C55.5333 110.7 54.5667 110.067 53.9 109.2C53.5667 108.867 53.3 108.333 53.1 107.6C52.9667 106.867 52.9 106.233 52.9 105.7C52.9 105.367 52.9 105 52.9 104.6C52.9 104.2 52.9667 103.833 53.1 103.5C53.2333 102.767 53.7 102.1 54.5 101.5C55.0333 101.1 55.6667 100.8 56.4 100.6C56.8667 100.467 57.3333 100.367 57.8 100.3C58.2667 100.233 58.7667 100.167 59.3 100.1C59.7667 100.033 60.2333 100 60.7 100C61.1667 100 61.6667 100 62.2 100H71.8C72.2 100 72.6667 100 73.2 100C73.7333 100 74.3333 99.9667 75 99.9C77.6 99.9 80.1667 99.9 82.7 99.9C85.2333 99.9 87.7 99.9333 90.1 100H90.7C91.4333 100 92.1333 100.033 92.8 100.1C93.5333 100.1 94.2667 100.1 95 100.1C96.5333 100.167 97.9667 100.467 99.3 101C100.367 101.267 101.233 101.833 101.9 102.7Z" fill="black"/>
<path d="M110 51C94.1619 42.8866 84.558 40.1916 75 16C70.7343 36.5421 60.3592 42.2229 40 51C64.1455 54.1911 70.1219 63.5415 75 86C82.5516 69.9369 82.4772 59.2442 110 51Z" fill="#4E9FFF" stroke="#3A95FF"/>
</g>
<defs>
<clipPath id="clip0_1_107">
<rect width="150" height="200" rx="20" fill="white"/>
</clipPath>
</defs>
</svg>
