<svg width="150" height="200" viewBox="0 0 150 200" fill="none" xmlns="http://www.w3.org/2000/svg">
<g clip-path="url(#clip0_1_45)">
<rect width="150" height="200" rx="20" fill="white"/>
<rect width="150" height="200" fill="white"/>
<path d="M44.8 98.8C45.2667 98.6667 45.7 98.5667 46.1 98.5C46.5 98.3667 46.9 98.2667 47.3 98.2C47.7667 98.0667 48.3333 98 49 98C49.7333 97.9333 50.4 97.9667 51 98.1C51.6667 98.1667 52.2667 98.3667 52.8 98.7C53.4 98.9667 53.8333 99.4 54.1 100C54.3667 100.667 54.5333 101.467 54.6 102.4C54.7333 103.267 54.8 104.167 54.8 105.1C54.8 106.033 54.7667 106.967 54.7 107.9C54.7 108.767 54.7 109.567 54.7 110.3V161.4C54.7 162.133 54.7 162.9 54.7 163.7C54.7667 164.433 54.7667 165.2 54.7 166C54.6333 166.8 54.4333 167.567 54.1 168.3C53.7667 168.967 53.2667 169.533 52.6 170C51.6667 170.733 50.4 171.1 48.8 171.1C47.2667 171.167 45.9333 171 44.8 170.6C43.6 170.2 42.8667 169.433 42.6 168.3C42.4 167.167 42.3 166.033 42.3 164.9C41.8333 156.1 41.6 147.5 41.6 139.1C41.6667 130.633 41.7 121.933 41.7 113C41.5667 113.333 41.1 113.633 40.3 113.9C39.5667 114.167 38.7 114.4 37.7 114.6C36.7667 114.8 35.8667 114.967 35 115.1C34.1333 115.233 33.5667 115.3 33.3 115.3C31.5667 115.5 29.9667 115.333 28.5 114.8C27.1 114.2 26.3 112.867 26.1 110.8C25.8333 108.667 26.3 107 27.5 105.8C28.7667 104.6 30.3667 103.7 32.3 103.1C34.4333 102.367 36.5 101.633 38.5 100.9C40.5667 100.1 42.6667 99.4 44.8 98.8ZM95.8133 170.7C94.6133 170.7 93.3799 170.633 92.1133 170.5C90.9133 170.3 89.7133 169.967 88.5133 169.5C86.7133 168.767 84.9799 167.8 83.3133 166.6C81.7133 165.333 80.2466 163.933 78.9133 162.4C75.7133 158.8 73.2799 154.567 71.6133 149.7C69.9466 144.767 69.1133 139.767 69.1133 134.7C69.1133 127.767 70.4466 121.067 73.1133 114.6C73.5799 113.467 74.1799 112.267 74.9133 111C75.7133 109.733 76.5799 108.533 77.5133 107.4C78.5133 106.2 79.5133 105.133 80.5133 104.2C81.5799 103.267 82.6466 102.567 83.7133 102.1C85.1799 101.433 86.7799 100.767 88.5133 100.1C90.6466 99.4333 93.0466 99.1333 95.7133 99.2C98.3799 99.2667 100.813 99.5667 103.013 100.1C106.08 100.833 108.713 102.167 110.913 104.1C113.113 105.967 114.98 108.233 116.513 110.9C118.047 113.5 119.247 116.367 120.113 119.5C120.98 122.567 121.613 125.7 122.013 128.9C122.28 131.033 122.38 133.167 122.313 135.3C122.247 137.367 122.08 139.467 121.813 141.6C121.547 143.533 121.213 145.467 120.813 147.4C120.48 149.333 120.013 151.2 119.413 153C118.813 154.8 118.047 156.533 117.113 158.2C116.18 159.8 115.013 161.3 113.613 162.7C111.08 165.167 108.313 167.1 105.313 168.5C102.38 169.833 99.2133 170.567 95.8133 170.7ZM95.7133 112.4C94.78 112.4 93.8466 112.5 92.9133 112.7C92.0466 112.833 91.2133 113.167 90.4133 113.7C89.4799 114.3 88.6466 115.033 87.9133 115.9C87.1799 116.767 86.5466 117.667 86.0133 118.6C84.6133 121 83.6466 123.567 83.1133 126.3C82.5799 129.033 82.3133 131.8 82.3133 134.6C82.3133 137.467 82.6133 140.433 83.2133 143.5C83.8799 146.567 85.0466 149.367 86.7133 151.9C87.5133 153.1 88.4466 154.167 89.5133 155.1C90.6466 155.967 91.9466 156.6 93.4133 157C94.7466 157.333 96.0799 157.433 97.4133 157.3C98.8133 157.167 100.113 156.733 101.313 156C103.247 154.8 104.78 153.2 105.913 151.2C107.047 149.2 107.88 147.033 108.413 144.7C109.013 142.367 109.347 139.967 109.413 137.5C109.547 135.033 109.547 132.8 109.413 130.8C109.28 128.8 108.947 126.7 108.413 124.5C107.88 122.3 107.08 120.3 106.013 118.5C105.013 116.7 103.647 115.233 101.913 114.1C100.247 112.9 98.18 112.333 95.7133 112.4Z" fill="black"/>
<path d="M101.43 29.8958C95.7191 25.6696 86.9949 37.4198 83.3466 43.8232C81.2845 40.1412 72.5919 32.201 54.3186 29.8958C31.4769 27.0143 60.5049 80.3225 83.3466 77.9212C106.188 75.5199 108.568 35.1786 101.43 29.8958Z" fill="#FF3131" stroke="#FF0000"/>
</g>
<defs>
<clipPath id="clip0_1_45">
<rect width="150" height="200" rx="20" fill="white"/>
</clipPath>
</defs>
</svg>
