<svg width="150" height="200" viewBox="0 0 150 200" fill="none" xmlns="http://www.w3.org/2000/svg">
<g clip-path="url(#clip0_1_17)">
<rect width="150" height="200" rx="20" fill="#6F6F6F"/>
<rect width="150" height="200" fill="white"/>
<path d="M50.7 108.9C49.8333 108.1 49.4 106.9 49.4 105.3C49.4667 104.567 49.6 103.867 49.8 103.2C50 102.467 50.3667 101.833 50.9 101.3C52.3667 99.9667 53.9333 99.2 55.6 99C57.2667 98.8 59.0667 98.6333 61 98.5C62.5333 98.4333 63.9 98.4333 65.1 98.5C66.3 98.5 67.6667 98.5 69.2 98.5C71.5333 98.5 74.0667 98.5333 76.8 98.6C79.6 98.6667 82.2333 98.7667 84.7 98.9C85.7 98.9667 86.7 99.1 87.7 99.3C88.7 99.5 89.6 99.8667 90.4 100.4C91.2 100.867 91.8333 101.5 92.3 102.3C92.8333 103.033 93.1333 103.967 93.2 105.1C93.2667 106.433 93.0667 107.7 92.6 108.9C92.2 110.1 91.6333 111.267 90.9 112.4C90.1667 113.467 89.3333 114.5 88.4 115.5C87.5333 116.433 86.7 117.3 85.9 118.1C84.4333 119.633 82.7667 121.267 80.9 123C79.0333 124.733 77.3667 126.367 75.9 127.9C78.5 128.233 81 128.833 83.4 129.7C85.8667 130.567 88.0333 131.767 89.9 133.3C91.7667 134.833 93.2333 136.767 94.3 139.1C95.4333 141.367 96 144.1 96 147.3C96 150.5 95.3667 153.467 94.1 156.2C92.9 158.933 91.2 161.333 89 163.4C86.8 165.4 84.2 166.967 81.2 168.1C78.2 169.233 74.9 169.8 71.3 169.8C69.7667 169.8 68.1 169.667 66.3 169.4C64.5667 169.133 62.8333 168.733 61.1 168.2C59.3667 167.667 57.7 167 56.1 166.2C54.5667 165.333 53.2333 164.3 52.1 163.1C51.3 162.3 50.6 161.367 50 160.3C49.4667 159.167 49.1333 158.033 49 156.9C48.9333 155.7 49.1667 154.633 49.7 153.7C50.2333 152.7 51.1667 151.967 52.5 151.5C53.5 151.167 54.4667 151.033 55.4 151.1C56.3333 151.167 57.2333 151.4 58.1 151.8C58.9667 152.133 59.8 152.533 60.6 153C61.4667 153.467 62.3 153.933 63.1 154.4C65.5667 155.933 68.1333 156.833 70.8 157.1C73.5333 157.367 76.2 156.733 78.8 155.2C80.2667 154.333 81.3333 153.267 82 152C82.6667 150.667 82.9333 149.333 82.8 148C82.7333 146.667 82.3 145.4 81.5 144.2C80.7667 143 79.7333 142 78.4 141.2C77.1333 140.467 75.7333 139.967 74.2 139.7C72.6667 139.433 71.1333 139.167 69.6 138.9C68.0667 138.633 66.6 138.267 65.2 137.8C63.8 137.333 62.6 136.533 61.6 135.4C60.4667 134.133 60.1 132.767 60.5 131.3C60.9 129.833 61.6333 128.4 62.7 127C63.8333 125.6 65.0667 124.267 66.4 123C67.8 121.733 68.9 120.667 69.7 119.8C70.1667 119.333 70.7 118.767 71.3 118.1C71.9667 117.433 72.5667 116.767 73.1 116.1C73.7 115.433 74.2 114.8 74.6 114.2C75.0667 113.533 75.3667 112.933 75.5 112.4C75.7 111.867 75.6 111.5 75.2 111.3C74.8 111.033 74.3 110.9 73.7 110.9C73.1 110.833 72.4333 110.833 71.7 110.9C71.0333 110.9 70.5 110.9 70.1 110.9H63.4C62.4667 110.9 61.4333 110.933 60.3 111C59.1667 111 58 110.967 56.8 110.9C55.6667 110.767 54.5333 110.567 53.4 110.3C52.3333 110.033 51.4333 109.567 50.7 108.9Z" fill="black"/>
<path d="M100.43 29.8958C94.7191 25.6696 85.9949 37.4198 82.3466 43.8232C80.2845 40.1412 71.5919 32.201 53.3186 29.8958C30.4769 27.0143 59.5049 80.3225 82.3466 77.9212C105.188 75.5199 107.568 35.1786 100.43 29.8958Z" fill="#FF3131" stroke="#FF0000"/>
</g>
<defs>
<clipPath id="clip0_1_17">
<rect width="150" height="200" rx="20" fill="white"/>
</clipPath>
</defs>
</svg>
