<svg width="150" height="200" viewBox="0 0 150 200" fill="none" xmlns="http://www.w3.org/2000/svg">
<g clip-path="url(#clip0_1_25)">
<rect width="150" height="200" rx="20" fill="white"/>
<rect width="150" height="200" fill="white"/>
<path d="M56.3 100.1C56.9 99.5 57.6667 99.1333 58.6 99C59.6 98.8 60.7667 98.7 62.1 98.7H86.8C87.6667 98.7 88.6333 98.7 89.7 98.7C90.8333 98.6333 91.9 98.7 92.9 98.9C93.9 99.1 94.7667 99.4667 95.5 100C96.3 100.467 96.8667 101.233 97.2 102.3C97.4 102.967 97.4667 103.733 97.4 104.6C97.4 105.467 97.2333 106.3 96.9 107.1C96.6333 107.833 96.2 108.5 95.6 109.1C95 109.633 94.2667 109.933 93.4 110C91.6667 110.333 89.8667 110.433 88 110.3C86.1333 110.1 84.3333 110 82.6 110C80.6667 110 78.9667 110.067 77.5 110.2C76.0333 110.333 74.3667 110.4 72.5 110.4C71.7667 110.4 70.8333 110.367 69.7 110.3C68.5667 110.233 67.7 110.3 67.1 110.5C66.5667 110.633 66.1333 110.9 65.8 111.3C65.5333 111.7 65.3333 112.167 65.2 112.7C65.0667 113.167 65 113.667 65 114.2C65 114.733 65 115.2 65 115.6C65 116.733 64.9333 117.9 64.8 119.1C64.7333 120.233 64.6667 121.367 64.6 122.5C64.4667 124.033 64.6667 124.9 65.2 125.1C65.8 125.233 66.8 125.1 68.2 124.7C70.6 124.1 73.0667 123.8 75.6 123.8C79 123.8 82.1667 124.267 85.1 125.2C88.0333 126.067 90.5667 127.433 92.7 129.3C94.9 131.1 96.6 133.4 97.8 136.2C99.0667 138.933 99.7 142.133 99.7 145.8C99.7 146.467 99.6667 147.1 99.6 147.7C99.6 148.3 99.5333 148.9 99.4 149.5C98.8667 153.7 97.3 157.4 94.7 160.6C92.1 163.8 88.8 166.1 84.8 167.5C80.0667 169.3 75.1667 170.133 70.1 170C65.0333 169.8 60.3667 168.333 56.1 165.6C54.9 164.867 53.8 164 52.8 163C51.8 161.933 51.0667 160.733 50.6 159.4C50.0667 158 49.9 156.567 50.1 155.1C50.3667 153.567 51.2667 152.433 52.8 151.7C53.9333 151.167 54.9667 151 55.9 151.2C56.9 151.333 57.8333 151.667 58.7 152.2C59.5667 152.667 60.4 153.267 61.2 154C62.0667 154.667 62.9333 155.233 63.8 155.7C65.3333 156.433 66.9333 157.067 68.6 157.6C70.2667 158.067 72.0333 158.3 73.9 158.3C78.0333 158.3 81.3333 157.2 83.8 155C86.3333 152.8 87.6 149.833 87.6 146.1C87.6 142.5 86.3 139.7 83.7 137.7C81.1 135.633 77.6 134.6 73.2 134.6C72.0667 134.6 70.9333 134.667 69.8 134.8C68.6667 134.933 67.5333 135.167 66.4 135.5C65.3333 135.767 64.2667 136.067 63.2 136.4C62.2 136.733 61.2 136.967 60.2 137.1C59.2 137.167 58.2 137.067 57.2 136.8C56.2667 136.467 55.3667 135.767 54.5 134.7C53.6333 133.767 53.2 132.633 53.2 131.3C53.2 129.967 53.2667 128.733 53.4 127.6C53.5333 125.667 53.6333 123.733 53.7 121.8C53.7667 119.867 53.8667 117.933 54 116C54.1333 114.067 54.2333 112.167 54.3 110.3C54.4333 108.367 54.5667 106.433 54.7 104.5C54.7667 103.367 54.9333 102.467 55.2 101.8C55.4667 101.133 55.8333 100.567 56.3 100.1Z" fill="black"/>
<path d="M101.43 29.8958C95.7191 25.6696 86.9949 37.4198 83.3466 43.8232C81.2845 40.1412 72.5919 32.201 54.3186 29.8958C31.4769 27.0143 60.5049 80.3225 83.3466 77.9212C106.188 75.5199 108.568 35.1786 101.43 29.8958Z" fill="#FF3131" stroke="#FF0000"/>
</g>
<defs>
<clipPath id="clip0_1_25">
<rect width="150" height="200" rx="20" fill="white"/>
</clipPath>
</defs>
</svg>
