<svg width="150" height="200" viewBox="0 0 150 200" fill="none" xmlns="http://www.w3.org/2000/svg">
<g clip-path="url(#clip0_1_65)">
<rect width="150" height="200" rx="20" fill="white"/>
<rect width="150" height="200" fill="white"/>
<path d="M105.7 164.2C105.767 164.6 105.8 165 105.8 165.4C105.867 165.733 105.9 166.133 105.9 166.6C105.9 167.4 105.667 168.133 105.2 168.8C105 169.133 104.733 169.467 104.4 169.8C104.067 170.067 103.667 170.3 103.2 170.5C101.533 171.433 99.7667 171.767 97.9 171.5C96.9667 171.233 96.1333 170.8 95.4 170.2C95.2667 170.067 95.1667 170 95.1 170C95.0333 169.933 94.9667 169.833 94.9 169.7C94.8333 169.633 94.7667 169.567 94.7 169.5C94.6333 169.367 94.5333 169.267 94.4 169.2C94.0667 168.867 93.8 168.567 93.6 168.3C93.4 167.967 93.2 167.633 93 167.3C92.8667 166.967 92.7 166.667 92.5 166.4C92.3667 166.067 92.2 165.733 92 165.4C91.8667 165.133 91.7333 164.9 91.6 164.7C91.4667 164.433 91.3667 164.167 91.3 163.9C91.0333 163.3 90.8667 162.767 90.8 162.3L88.7 157.4C84.1 157.4 79.5 157.433 74.9 157.5C70.3667 157.5 65.8 157.467 61.2 157.4L59.1 162.3C58.9667 162.567 58.8667 162.833 58.8 163.1C58.8 163.367 58.7333 163.633 58.6 163.9C58.4667 164.167 58.3333 164.433 58.2 164.7C58.1333 164.9 58.0333 165.133 57.9 165.4C57.7 165.733 57.5 166.067 57.3 166.4C57.1667 166.667 57 166.967 56.8 167.3C56.6667 167.633 56.5 167.967 56.3 168.3C56.1 168.567 55.8333 168.867 55.5 169.2C55.3667 169.267 55.2667 169.367 55.2 169.5C55.1333 169.567 55.0667 169.633 55 169.7C54.9333 169.833 54.8667 169.933 54.8 170C54.7333 170 54.6333 170.067 54.5 170.2C53.7667 170.8 52.9333 171.233 52 171.5C50.1333 171.767 48.3667 171.433 46.7 170.5C46.2333 170.3 45.8333 170.067 45.5 169.8C45.1667 169.467 44.9 169.133 44.7 168.8C44.2333 168.133 44 167.4 44 166.6C44 166.133 44 165.733 44 165.4C44.0667 165 44.1333 164.6 44.2 164.2C44.3333 163.6 44.5 163 44.7 162.4C44.9 161.8 45 161.5 45 161.5L65.8 110.3L66.4 108.7C66.5333 108.3 66.7 107.933 66.9 107.6C67.1 107.267 67.2667 106.867 67.4 106.4C67.7333 105.533 68.1 104.767 68.5 104.1C68.7 103.7 68.9333 103.333 69.2 103C69.4667 102.667 69.7333 102.333 70 102C70.4 101.467 70.9667 101.033 71.7 100.7C72.6333 100.367 73.7 100.2 74.9 100.2C76.1667 100.2 77.2667 100.367 78.2 100.7C78.9333 101.033 79.5 101.467 79.9 102C80.3667 102.6 80.8667 103.3 81.4 104.1C81.8 104.767 82.1667 105.533 82.5 106.4C82.6333 106.867 82.8 107.267 83 107.6C83.2 107.933 83.3667 108.3 83.5 108.7L84.1 110.3L104.9 161.5C104.9 161.5 105 161.8 105.2 162.4C105.4 163 105.567 163.6 105.7 164.2ZM82 139.7C81.1333 137.767 80.2333 135.767 79.3 133.7C78.4333 131.633 77.5 129.533 76.5 127.4C76.2333 126.8 75.9667 126.2 75.7 125.6C75.4333 124.933 75.1667 124.3 74.9 123.7C74.7 124.3 74.4667 124.933 74.2 125.6C73.9333 126.2 73.6667 126.8 73.4 127.4C72.4 129.533 71.4333 131.633 70.5 133.7C69.6333 135.767 68.7667 137.767 67.9 139.7L66.1 144.1H83.8L82 139.7Z" fill="black"/>
<path d="M101.43 29.8958C95.7191 25.6696 86.9949 37.4198 83.3466 43.8232C81.2845 40.1412 72.5919 32.201 54.3186 29.8958C31.4769 27.0143 60.5049 80.3225 83.3466 77.9212C106.188 75.5199 108.568 35.1786 101.43 29.8958Z" fill="#FF3131" stroke="#FF0000"/>
</g>
<defs>
<clipPath id="clip0_1_65">
<rect width="150" height="200" rx="20" fill="white"/>
</clipPath>
</defs>
</svg>
