<svg width="150" height="200" viewBox="0 0 150 200" fill="none" xmlns="http://www.w3.org/2000/svg">
<g clip-path="url(#clip0_1_61)">
<rect width="150" height="200" rx="20" fill="white"/>
<rect width="150" height="200" fill="white"/>
<path d="M99.4 163.8C99.9333 164.8 99.9667 165.8 99.5 166.8C99.1667 167.867 98.6 168.667 97.8 169.2C97.4 169.533 97.0333 169.833 96.7 170.1C96.3667 170.3 96 170.467 95.6 170.6C94.8667 171 94 171.133 93 171C92.6 171 92.2333 170.933 91.9 170.8C91.5667 170.667 91.2333 170.5 90.9 170.3C90.5667 170.1 90.2 169.9 89.8 169.7C89.4667 169.433 89.1333 169.167 88.8 168.9C88.4 168.567 88.0333 168.267 87.7 168C87.3667 167.733 87.0667 167.433 86.8 167.1C86.4667 166.767 86.1667 166.433 85.9 166.1C85.6333 165.767 85.3667 165.467 85.1 165.2L83.9 163.9L64.7 143.8L65 163.9V164.8C65 165.067 64.9667 165.367 64.9 165.7C64.8333 165.967 64.7667 166.267 64.7 166.6C64.5 167.467 64.2667 168.233 64 168.9C63.8667 169.3 63.6667 169.633 63.4 169.9C63.2 170.167 62.9667 170.433 62.7 170.7C61.9667 171.367 61.1 171.733 60.1 171.8C59.1 172.133 58.1667 172.233 57.3 172.1C56.5 172.033 55.6667 171.8 54.8 171.4C54.1333 171 53.5333 170.333 53 169.4C52.8667 169.133 52.7667 168.967 52.7 168.9C52.7 168.833 52.6333 168.6 52.5 168.2C52.1 167.533 51.9 166.867 51.9 166.2C51.8333 165.8 51.7667 165.433 51.7 165.1C51.7 164.767 51.6667 164.4 51.6 164C51.5333 163.733 51.5 163.467 51.5 163.2C51.5 162.933 51.5 162.667 51.5 162.4C51.5667 162.067 51.6 161.8 51.6 161.6C51.6 161.333 51.6 161.033 51.6 160.7L51.5 152.8L51.4 138.1C51.4 133.833 51.3 129.233 51.1 124.3C51.0333 121.9 51 119.767 51 117.9C51 116.033 51.0333 113.933 51.1 111.6V111.2C51.2333 110.467 51.3 109.767 51.3 109.1C51.3 108.367 51.3333 107.667 51.4 107C51.4 105.667 51.7 104.333 52.3 103C52.7 102 53.4 101.2 54.4 100.6C54.9333 100.267 55.4333 100.067 55.9 100C56.4333 99.8667 57 99.7333 57.6 99.6C58.0667 99.6 58.5 99.6333 58.9 99.7C59.3667 99.7667 59.8 99.8333 60.2 99.9C61.0667 100.033 61.8667 100.4 62.6 101C62.8 101.2 62.9667 101.433 63.1 101.7C63.3 101.967 63.4667 102.3 63.6 102.7C63.9333 103.233 64.1667 104 64.3 105C64.3667 105.4 64.4 105.8 64.4 106.2C64.4667 106.6 64.5 107.033 64.5 107.5V111.6L64.6 123.8C65.6667 122.867 66.7 121.9 67.7 120.9C68.7667 119.9 69.8 118.833 70.8 117.7C72.6 115.833 74.3667 114.033 76.1 112.3C77.9 110.5 79.7 108.733 81.5 107L81.8 106.7C82.3333 106.167 82.8667 105.667 83.4 105.2C84 104.667 84.5667 104.167 85.1 103.7C86.1 102.567 87.3333 101.767 88.8 101.3C89.7333 100.7 90.8333 100.467 92.1 100.6C92.7 100.667 93.2333 100.8 93.7 101C94.2333 101.2 94.7333 101.467 95.2 101.8C95.5333 102.133 95.8667 102.433 96.2 102.7C96.5333 102.9 96.8 103.167 97 103.5C97.5333 103.967 97.8667 104.667 98 105.6C98 106.333 97.8667 107 97.6 107.6C97.4 107.933 97.2 108.267 97 108.6C96.8 108.933 96.5667 109.267 96.3 109.6C95.9667 110 95.6667 110.367 95.4 110.7C95.1333 111.033 94.8333 111.367 94.5 111.7C94.2333 112.033 93.9333 112.333 93.6 112.6C93.3333 112.867 93.0667 113.167 92.8 113.5L91.5 114.8L72.8 133.9C73.8 134.9 74.8333 135.967 75.9 137.1C77.0333 138.167 78.1 139.233 79.1 140.3C80.1 141.3 81.0333 142.267 81.9 143.2C82.7667 144.067 83.5 144.8 84.1 145.4C85.9 147.267 87.6333 149.133 89.3 151C90.9667 152.8 92.6 154.633 94.2 156.5L94.5 156.8C95.0333 157.333 95.5333 157.9 96 158.5C96.4667 159.033 96.9 159.567 97.3 160.1C98.3 161.233 99 162.467 99.4 163.8Z" fill="black"/>
<path d="M101.43 29.8958C95.7191 25.6696 86.9949 37.4198 83.3466 43.8232C81.2845 40.1412 72.5919 32.201 54.3186 29.8958C31.4769 27.0143 60.5049 80.3225 83.3466 77.9212C106.188 75.5199 108.568 35.1786 101.43 29.8958Z" fill="#FF3131" stroke="#FF0000"/>
</g>
<defs>
<clipPath id="clip0_1_61">
<rect width="150" height="200" rx="20" fill="white"/>
</clipPath>
</defs>
</svg>
