<svg width="150" height="200" viewBox="0 0 150 200" fill="none" xmlns="http://www.w3.org/2000/svg">
<g clip-path="url(#clip0_1_143)">
<rect width="150" height="200" rx="20" fill="white"/>
<rect width="150" height="200" fill="white"/>
<path d="M60.8 121.3C59.8 122.833 58.6 123.767 57.2 124.1C55.8667 124.433 54.5667 124.333 53.3 123.8C52.0333 123.267 50.9667 122.4 50.1 121.2C49.3 119.933 48.9667 118.5 49.1 116.9C49.1667 115.833 49.4333 114.667 49.9 113.4C50.3667 112.133 50.9333 110.933 51.6 109.8C52.3333 108.6 53.1 107.5 53.9 106.5C54.7667 105.433 55.6333 104.533 56.5 103.8C58.1 102.533 59.9 101.433 61.9 100.5C63.9667 99.5667 66.1 98.8667 68.3 98.4C70.5667 97.9333 72.8 97.7333 75 97.8C77.2667 97.8667 79.3667 98.2 81.3 98.8C86.6333 100.467 90.7667 103.1 93.7 106.7C96.6333 110.3 98.1 114.967 98.1 120.7C98.1 123.433 97.8333 125.9 97.3 128.1C96.8333 130.233 95.9667 132.3 94.7 134.3C93.5 136.3 91.8667 138.333 89.8 140.4C87.8 142.467 85.3 144.733 82.3 147.2C81.3 148.067 80.2667 148.933 79.2 149.8C78.1333 150.667 77.0667 151.533 76 152.4C75.6667 152.667 75.0333 153.067 74.1 153.6C73.1667 154.133 72.3333 154.667 71.6 155.2C70.8667 155.733 70.4333 156.233 70.3 156.7C70.1667 157.167 70.7 157.433 71.9 157.5C73.3667 157.633 74.5333 157.667 75.4 157.6C76.2667 157.533 77.4333 157.5 78.9 157.5C80.6333 157.5 82.3333 157.467 84 157.4C85.6667 157.333 87.3333 157.367 89 157.5C89.6667 157.567 90.4 157.6 91.2 157.6C92 157.533 92.8 157.533 93.6 157.6C94.4 157.6 95.1667 157.7 95.9 157.9C96.6333 158.033 97.2667 158.333 97.8 158.8C98.3333 159.267 98.7333 159.9 99 160.7C99.2667 161.5 99.4 162.367 99.4 163.3C99.4667 164.167 99.4 165.033 99.2 165.9C99 166.7 98.6667 167.333 98.2 167.8C97.3333 168.8 96.2667 169.3 95 169.3C93.7333 169.233 92.5333 169.2 91.4 169.2H55.5C54.8333 169.2 54.1 169.233 53.3 169.3C52.5667 169.367 51.9 169.3 51.3 169.1C50.1 168.767 49.5 168.133 49.5 167.2C49.5667 166.267 49.6 165.3 49.6 164.3C49.6 162.633 50 161.1 50.8 159.7C51.6 158.233 52.6 156.9 53.8 155.7C55.0667 154.433 56.4 153.267 57.8 152.2C59.2 151.133 60.5 150.1 61.7 149.1C63.4333 147.567 65.3 146.033 67.3 144.5C69.3 142.967 71.2 141.433 73 139.9C75.3333 137.967 77.3 136.2 78.9 134.6C80.5667 133 81.9 131.5 82.9 130.1C83.9 128.7 84.6333 127.333 85.1 126C85.5667 124.6 85.8 123.133 85.8 121.6C85.8 118.2 84.7667 115.6 82.7 113.8C80.6333 111.933 78 111 74.8 111C72.4667 111 70.2667 111.5 68.2 112.5C66.2 113.5 64.5333 114.967 63.2 116.9C62.8 117.633 62.4 118.4 62 119.2C61.6667 119.933 61.2667 120.633 60.8 121.3Z" fill="black"/>
<path d="M74.3635 57.1972C77.1627 73.6663 80.4918 75.7182 86.0323 81H62.0806C69.3668 74.0017 72.4686 69.1705 74.3635 57.1972Z" fill="black"/>
<path fill-rule="evenodd" clip-rule="evenodd" d="M74.68 53.7559C76.6295 56.4335 79.8185 59.9761 83.1258 62.0209C84.7963 63.0537 86.4775 63.6921 88.0327 63.6631C89.5752 63.6343 91.0167 62.949 92.2258 61.2818C93.412 59.6461 93.4366 57.3435 92.6246 54.6294C91.8144 51.9211 90.1848 48.8526 88.1404 45.7382C84.0801 39.553 78.4133 33.2311 74.3989 29.2668C70.3982 33.2416 64.8522 39.4559 60.8597 45.5379C58.8152 48.6523 57.1857 51.7208 56.3754 54.4291C55.5634 57.1433 55.588 59.4459 56.7743 61.0816C57.9833 62.7488 59.4248 63.4341 60.9673 63.4628C62.5225 63.4918 64.2037 62.8534 65.8742 61.8206C69.2147 59.7553 72.4345 56.162 74.3784 53.4753L74.704 53.7227C74.696 53.7337 74.688 53.7448 74.68 53.7559ZM74.426 54.1014C76.3973 56.7889 79.5863 60.3177 82.9164 62.3766C84.6184 63.4289 86.3768 64.1095 88.0401 64.0785C89.7161 64.0472 91.272 63.2935 92.5511 61.5296C93.8531 59.7343 93.8376 57.2667 93.0122 54.5076C92.185 51.7426 90.5305 48.6349 88.4767 45.5063C84.3678 39.2469 78.6305 32.8591 74.5993 28.8878L74.5939 28.8936L74.4007 28.6876C70.3695 32.6588 64.6322 39.0467 60.5233 45.306C58.4696 48.4346 56.8151 51.5423 55.9879 54.3073C55.1624 57.0664 55.1469 59.5341 56.4489 61.3294C57.728 63.0932 59.2839 63.847 60.9599 63.8782C62.6232 63.9092 64.3816 63.2286 66.0836 62.1764C69.3317 60.1682 72.4454 56.7617 74.426 54.1014Z" fill="black"/>
<path fill-rule="evenodd" clip-rule="evenodd" d="M74.3849 66.6824C75.6708 67.8163 77.0541 68.8825 78.5047 69.7875C80.8584 71.2559 84.2282 72.8318 88.1459 72.7581C92.6098 72.6741 96.5535 70.4713 99.2944 66.6574C103.014 61.4816 102.159 55.514 101.056 51.793C99.8763 47.8154 97.7056 43.8624 95.4645 40.4174C90.9217 33.4342 84.7545 26.5324 80.4771 22.2804L80.4572 22.2606L74.6381 16.0001L74.3987 16.2381L74.3628 16.2024L73.4867 17.1447L68.5229 22.079C64.2455 26.331 58.0783 33.2328 53.5355 40.216C51.2944 43.6611 49.1237 47.6141 47.9445 51.5916C46.8413 55.3127 45.9859 61.2802 49.7056 66.4561C52.4465 70.2699 56.3902 72.4728 60.8541 72.5568C64.7718 72.6305 68.1416 71.0546 70.4953 69.5862C71.8607 68.7343 73.1656 67.7403 74.3849 66.6824Z" fill="black"/>
</g>
<defs>
<clipPath id="clip0_1_143">
<rect width="150" height="200" rx="20" fill="white"/>
</clipPath>
</defs>
</svg>
