<svg width="150" height="200" viewBox="0 0 150 200" fill="none" xmlns="http://www.w3.org/2000/svg">
<g clip-path="url(#clip0_1_151)">
<rect width="150" height="200" rx="20" fill="white"/>
<rect width="150" height="200" fill="white"/>
<path d="M92 100.2C92.4667 100.933 92.7667 101.867 92.9 103C93.2333 105.333 93.3667 107.733 93.3 110.2C93.3 112.6 93.3333 114.967 93.4 117.3C93.4 120.033 93.4 122.733 93.4 125.4C93.4667 128.067 93.5 130.767 93.5 133.5V142H97.8C98.5333 142 99.3 142.1 100.1 142.3C100.9 142.433 101.633 142.7 102.3 143.1C102.967 143.5 103.533 144 104 144.6C104.467 145.2 104.733 145.933 104.8 146.8C104.8 148.933 104.133 150.4 102.8 151.2C101.467 151.933 99.8667 152.367 98 152.5C97.8667 152.5 97.5667 152.533 97.1 152.6C96.7 152.6 96.2333 152.6 95.7 152.6C95.1667 152.6 94.6667 152.6 94.2 152.6C93.8 152.6 93.5667 152.533 93.5 152.4V159.2C93.5 159.933 93.5 160.767 93.5 161.7C93.5 162.633 93.4333 163.567 93.3 164.5C93.1667 165.367 92.9 166.2 92.5 167C92.1667 167.8 91.6333 168.433 90.9 168.9C90.5667 169.1 90.1333 169.267 89.6 169.4C89.1333 169.467 88.6 169.533 88 169.6C87.4 169.667 86.8 169.7 86.2 169.7C85.6667 169.633 85.2 169.533 84.8 169.4C83.6 169 82.8333 168.167 82.5 166.9C82.1667 165.567 81.9333 164.333 81.8 163.2C81.8 163 81.8 162.367 81.8 161.3C81.8 160.167 81.8 159 81.8 157.8C81.8 156.533 81.7667 155.4 81.7 154.4C81.6333 153.4 81.5333 152.9 81.4 152.9H63.8C61.8667 152.9 59.8333 152.867 57.7 152.8C55.5667 152.733 53.7333 152.133 52.2 151C51 150.133 50.3 149.167 50.1 148.1C49.9 146.967 49.9667 145.867 50.3 144.8C50.7 143.667 51.2667 142.567 52 141.5C52.7333 140.433 53.4333 139.467 54.1 138.6C56.6333 135.2 59.0667 131.733 61.4 128.2C63.8 124.667 66.2 121.167 68.6 117.7C69.9333 115.9 71.3 114.167 72.7 112.5C74.1667 110.833 75.5333 109.1 76.8 107.3C77.7333 105.9 78.7333 104.467 79.8 103C80.9333 101.533 82.3333 100.4 84 99.6C85.6 98.8667 87.1333 98.5 88.6 98.5C90.0667 98.5 91.2 99.0667 92 100.2ZM82.1 118.2L65.5 141.6H82.1V118.2Z" fill="black"/>
<path d="M75.3635 53.1972C78.1627 69.6663 81.4918 71.7182 87.0323 77H63.0806C70.3668 70.0017 73.4686 65.1705 75.3635 53.1972Z" fill="black"/>
<path fill-rule="evenodd" clip-rule="evenodd" d="M75.68 49.7559C77.6295 52.4335 80.8185 55.9761 84.1258 58.0209C85.7963 59.0537 87.4775 59.6921 89.0327 59.6631C90.5752 59.6343 92.0167 58.949 93.2258 57.2818C94.412 55.6461 94.4366 53.3435 93.6246 50.6294C92.8144 47.9211 91.1848 44.8526 89.1404 41.7382C85.0801 35.553 79.4133 29.2311 75.3989 25.2668C71.3982 29.2416 65.8522 35.4559 61.8597 41.5379C59.8152 44.6523 58.1857 47.7208 57.3754 50.4291C56.5634 53.1433 56.588 55.4459 57.7743 57.0816C58.9833 58.7488 60.4248 59.4341 61.9673 59.4628C63.5225 59.4918 65.2037 58.8534 66.8742 57.8206C70.2147 55.7553 73.4345 52.162 75.3784 49.4753L75.704 49.7227C75.696 49.7337 75.688 49.7448 75.68 49.7559ZM75.426 50.1014C77.3973 52.7889 80.5863 56.3177 83.9164 58.3766C85.6184 59.4289 87.3768 60.1095 89.0401 60.0785C90.7161 60.0472 92.272 59.2935 93.5511 57.5296C94.8531 55.7343 94.8376 53.2667 94.0122 50.5076C93.185 47.7426 91.5305 44.6349 89.4767 41.5063C85.3678 35.2469 79.6305 28.8591 75.5993 24.8878L75.5939 24.8936L75.4007 24.6876C71.3695 28.6588 65.6322 35.0467 61.5233 41.306C59.4696 44.4346 57.8151 47.5423 56.9879 50.3073C56.1624 53.0664 56.1469 55.5341 57.4489 57.3294C58.728 59.0932 60.2839 59.847 61.9599 59.8782C63.6232 59.9092 65.3816 59.2286 67.0836 58.1764C70.3317 56.1682 73.4454 52.7617 75.426 50.1014Z" fill="black"/>
<path fill-rule="evenodd" clip-rule="evenodd" d="M75.3849 62.6824C76.6708 63.8163 78.0541 64.8825 79.5047 65.7875C81.8584 67.2559 85.2282 68.8318 89.1459 68.7581C93.6098 68.6741 97.5535 66.4713 100.294 62.6574C104.014 57.4816 103.159 51.514 102.056 47.793C100.876 43.8154 98.7056 39.8624 96.4645 36.4174C91.9217 29.4342 85.7545 22.5324 81.4771 18.2804L81.4572 18.2606L75.6381 12.0001L75.3987 12.2381L75.3628 12.2024L74.4867 13.1447L69.5229 18.079C65.2455 22.331 59.0783 29.2328 54.5355 36.216C52.2944 39.6611 50.1237 43.6141 48.9445 47.5916C47.8413 51.3127 46.9859 57.2802 50.7056 62.4561C53.4465 66.2699 57.3902 68.4728 61.8541 68.5568C65.7718 68.6305 69.1416 67.0546 71.4953 65.5862C72.8607 64.7343 74.1656 63.7403 75.3849 62.6824Z" fill="black"/>
</g>
<defs>
<clipPath id="clip0_1_151">
<rect width="150" height="200" rx="20" fill="white"/>
</clipPath>
</defs>
</svg>
