<svg width="150" height="200" viewBox="0 0 150 200" fill="none" xmlns="http://www.w3.org/2000/svg">
<g clip-path="url(#clip0_1_155)">
<rect width="150" height="200" rx="20" fill="white"/>
<rect width="150" height="200" fill="white"/>
<path d="M56.3 100.1C56.9 99.5 57.6667 99.1333 58.6 99C59.6 98.8 60.7667 98.7 62.1 98.7H86.8C87.6667 98.7 88.6333 98.7 89.7 98.7C90.8333 98.6333 91.9 98.7 92.9 98.9C93.9 99.1 94.7667 99.4667 95.5 100C96.3 100.467 96.8667 101.233 97.2 102.3C97.4 102.967 97.4667 103.733 97.4 104.6C97.4 105.467 97.2333 106.3 96.9 107.1C96.6333 107.833 96.2 108.5 95.6 109.1C95 109.633 94.2667 109.933 93.4 110C91.6667 110.333 89.8667 110.433 88 110.3C86.1333 110.1 84.3333 110 82.6 110C80.6667 110 78.9667 110.067 77.5 110.2C76.0333 110.333 74.3667 110.4 72.5 110.4C71.7667 110.4 70.8333 110.367 69.7 110.3C68.5667 110.233 67.7 110.3 67.1 110.5C66.5667 110.633 66.1333 110.9 65.8 111.3C65.5333 111.7 65.3333 112.167 65.2 112.7C65.0667 113.167 65 113.667 65 114.2C65 114.733 65 115.2 65 115.6C65 116.733 64.9333 117.9 64.8 119.1C64.7333 120.233 64.6667 121.367 64.6 122.5C64.4667 124.033 64.6667 124.9 65.2 125.1C65.8 125.233 66.8 125.1 68.2 124.7C70.6 124.1 73.0667 123.8 75.6 123.8C79 123.8 82.1667 124.267 85.1 125.2C88.0333 126.067 90.5667 127.433 92.7 129.3C94.9 131.1 96.6 133.4 97.8 136.2C99.0667 138.933 99.7 142.133 99.7 145.8C99.7 146.467 99.6667 147.1 99.6 147.7C99.6 148.3 99.5333 148.9 99.4 149.5C98.8667 153.7 97.3 157.4 94.7 160.6C92.1 163.8 88.8 166.1 84.8 167.5C80.0667 169.3 75.1667 170.133 70.1 170C65.0333 169.8 60.3667 168.333 56.1 165.6C54.9 164.867 53.8 164 52.8 163C51.8 161.933 51.0667 160.733 50.6 159.4C50.0667 158 49.9 156.567 50.1 155.1C50.3667 153.567 51.2667 152.433 52.8 151.7C53.9333 151.167 54.9667 151 55.9 151.2C56.9 151.333 57.8333 151.667 58.7 152.2C59.5667 152.667 60.4 153.267 61.2 154C62.0667 154.667 62.9333 155.233 63.8 155.7C65.3333 156.433 66.9333 157.067 68.6 157.6C70.2667 158.067 72.0333 158.3 73.9 158.3C78.0333 158.3 81.3333 157.2 83.8 155C86.3333 152.8 87.6 149.833 87.6 146.1C87.6 142.5 86.3 139.7 83.7 137.7C81.1 135.633 77.6 134.6 73.2 134.6C72.0667 134.6 70.9333 134.667 69.8 134.8C68.6667 134.933 67.5333 135.167 66.4 135.5C65.3333 135.767 64.2667 136.067 63.2 136.4C62.2 136.733 61.2 136.967 60.2 137.1C59.2 137.167 58.2 137.067 57.2 136.8C56.2667 136.467 55.3667 135.767 54.5 134.7C53.6333 133.767 53.2 132.633 53.2 131.3C53.2 129.967 53.2667 128.733 53.4 127.6C53.5333 125.667 53.6333 123.733 53.7 121.8C53.7667 119.867 53.8667 117.933 54 116C54.1333 114.067 54.2333 112.167 54.3 110.3C54.4333 108.367 54.5667 106.433 54.7 104.5C54.7667 103.367 54.9333 102.467 55.2 101.8C55.4667 101.133 55.8333 100.567 56.3 100.1Z" fill="black"/>
<path d="M75.3635 53.1972C78.1627 69.6663 81.4918 71.7182 87.0322 77H63.0806C70.3668 70.0017 73.4686 65.1705 75.3635 53.1972Z" fill="black"/>
<path fill-rule="evenodd" clip-rule="evenodd" d="M75.68 49.7559C77.6295 52.4335 80.8185 55.9761 84.1258 58.0209C85.7963 59.0537 87.4775 59.6921 89.0327 59.6631C90.5752 59.6343 92.0167 58.949 93.2258 57.2818C94.412 55.6461 94.4366 53.3435 93.6246 50.6294C92.8144 47.9211 91.1848 44.8526 89.1404 41.7382C85.0801 35.553 79.4133 29.2311 75.3989 25.2668C71.3982 29.2416 65.8522 35.4559 61.8597 41.5379C59.8152 44.6523 58.1857 47.7208 57.3754 50.4291C56.5634 53.1433 56.588 55.4459 57.7743 57.0816C58.9833 58.7488 60.4248 59.4341 61.9673 59.4628C63.5225 59.4918 65.2037 58.8534 66.8742 57.8206C70.2147 55.7553 73.4345 52.162 75.3784 49.4753L75.704 49.7227C75.696 49.7337 75.688 49.7448 75.68 49.7559ZM75.426 50.1014C77.3973 52.7889 80.5863 56.3177 83.9164 58.3766C85.6184 59.4289 87.3768 60.1095 89.0401 60.0785C90.7161 60.0472 92.272 59.2935 93.5511 57.5296C94.8531 55.7343 94.8376 53.2667 94.0122 50.5076C93.185 47.7426 91.5305 44.6349 89.4767 41.5063C85.3678 35.2469 79.6305 28.8591 75.5993 24.8878L75.5939 24.8936L75.4007 24.6876C71.3695 28.6588 65.6322 35.0467 61.5233 41.306C59.4696 44.4346 57.8151 47.5423 56.9879 50.3073C56.1624 53.0664 56.1469 55.5341 57.4489 57.3294C58.728 59.0932 60.2839 59.847 61.9599 59.8782C63.6232 59.9092 65.3816 59.2286 67.0836 58.1764C70.3317 56.1682 73.4454 52.7617 75.426 50.1014Z" fill="black"/>
<path fill-rule="evenodd" clip-rule="evenodd" d="M75.3849 62.6824C76.6708 63.8163 78.0541 64.8825 79.5047 65.7875C81.8584 67.2559 85.2282 68.8318 89.1459 68.7581C93.6098 68.6741 97.5535 66.4713 100.294 62.6574C104.014 57.4816 103.159 51.514 102.056 47.793C100.876 43.8154 98.7056 39.8624 96.4645 36.4174C91.9217 29.4342 85.7545 22.5324 81.4771 18.2804L81.4572 18.2606L75.6381 12.0001L75.3987 12.2381L75.3628 12.2024L74.4867 13.1447L69.5229 18.079C65.2455 22.331 59.0783 29.2328 54.5355 36.216C52.2944 39.6611 50.1237 43.6141 48.9445 47.5916C47.8413 51.3127 46.9859 57.2802 50.7056 62.4561C53.4465 66.2699 57.3902 68.4728 61.8541 68.5568C65.7718 68.6305 69.1416 67.0546 71.4953 65.5862C72.8607 64.7343 74.1656 63.7403 75.3849 62.6824Z" fill="black"/>
</g>
<defs>
<clipPath id="clip0_1_155">
<rect width="150" height="200" rx="20" fill="white"/>
</clipPath>
</defs>
</svg>
