<svg width="150" height="200" viewBox="0 0 150 200" fill="none" xmlns="http://www.w3.org/2000/svg">
<g clip-path="url(#clip0_1_159)">
<rect width="150" height="200" rx="20" fill="white"/>
<rect width="150" height="200" fill="white"/>
<path d="M92.7 114.2C92.1 113.8 91.4667 113.4 90.8 113C90.1333 112.533 89.4333 112.167 88.7 111.9C86.3667 110.967 83.8 110.467 81 110.4C78.2667 110.267 75.7 110.767 73.3 111.9C71.3667 112.833 69.7333 114 68.4 115.4C67.1333 116.8 66.1 118.367 65.3 120.1C64.5 121.833 63.9 123.667 63.5 125.6C63.1 127.533 62.8667 129.467 62.8 131.4C64.6 129.6 66.8 128 69.4 126.6C72 125.133 75.3333 124.4 79.4 124.4C82.8 124.4 85.9667 124.9 88.9 125.9C91.9 126.833 94.5 128.233 96.7 130.1C98.9 131.967 100.633 134.267 101.9 137C103.167 139.733 103.8 142.867 103.8 146.4C103.8 149.933 103.133 153.167 101.8 156.1C100.467 158.967 98.6333 161.467 96.3 163.6C94.0333 165.667 91.3 167.3 88.1 168.5C84.9667 169.633 81.5667 170.2 77.9 170.2C73.6333 170.2 69.9 169.567 66.7 168.3C63.5667 166.967 60.8333 165.167 58.5 162.9C57.1667 161.567 55.9667 160.1 54.9 158.5C53.9 156.833 53.0333 154.967 52.3 152.9C51.5667 150.767 51 148.333 50.6 145.6C50.2 142.867 50 139.733 50 136.2C50 133.267 50.2 130.3 50.6 127.3C51 124.3 51.6667 121.4 52.6 118.6C53.6 115.8 54.9 113.167 56.5 110.7C58.1 108.233 60.1 106.033 62.5 104.1C64.7667 102.3 67.2333 100.9 69.9 99.9C72.5667 98.9 75.3 98.3333 78.1 98.2C80.9 98.0667 83.7 98.3333 86.5 99C89.3 99.6667 91.9333 100.767 94.4 102.3C95.0667 102.7 95.8333 103.3 96.7 104.1C97.5667 104.833 98.3 105.667 98.9 106.6C99.5 107.533 99.8667 108.6 100 109.8C100.133 110.933 99.8 112.1 99 113.3C98.8667 113.567 98.5667 113.833 98.1 114.1C97.6333 114.367 97.1 114.567 96.5 114.7C95.9 114.833 95.2667 114.867 94.6 114.8C93.9333 114.733 93.3 114.533 92.7 114.2ZM77.2 136.4C74.9333 136.533 72.8 137.133 70.8 138.2C68.8 139.2 67.0667 140.567 65.6 142.3C64.6667 143.433 64.1333 144.733 64 146.2C63.8667 147.6 63.9667 149 64.3 150.4C64.5667 152.067 65.2333 153.533 66.3 154.8C67.3667 156 68.6 157 70 157.8C71.4667 158.533 73.0333 159.067 74.7 159.4C76.4333 159.667 78.1 159.7 79.7 159.5C81.5 159.3 83.1333 158.833 84.6 158.1C86.1333 157.3 87.4333 156.333 88.5 155.2C89.5667 154 90.3667 152.633 90.9 151.1C91.5 149.5 91.7 147.8 91.5 146C91.3 144.067 90.8 142.467 90 141.2C89.2 139.867 88.1667 138.833 86.9 138.1C85.6333 137.367 84.1667 136.9 82.5 136.7C80.8333 136.433 79.0667 136.333 77.2 136.4Z" fill="black"/>
<path d="M75.3635 53.1972C78.1627 69.6663 81.4918 71.7182 87.0322 77H63.0806C70.3668 70.0017 73.4686 65.1705 75.3635 53.1972Z" fill="black"/>
<path fill-rule="evenodd" clip-rule="evenodd" d="M75.68 49.7559C77.6295 52.4335 80.8185 55.9761 84.1258 58.0209C85.7963 59.0537 87.4775 59.6921 89.0327 59.6631C90.5752 59.6343 92.0167 58.949 93.2258 57.2818C94.412 55.6461 94.4366 53.3435 93.6246 50.6294C92.8144 47.9211 91.1848 44.8526 89.1404 41.7382C85.0801 35.553 79.4133 29.2311 75.3989 25.2668C71.3982 29.2416 65.8522 35.4559 61.8597 41.5379C59.8152 44.6523 58.1857 47.7208 57.3754 50.4291C56.5634 53.1433 56.588 55.4459 57.7743 57.0816C58.9833 58.7488 60.4248 59.4341 61.9673 59.4628C63.5225 59.4918 65.2037 58.8534 66.8742 57.8206C70.2147 55.7553 73.4345 52.162 75.3784 49.4753L75.704 49.7227C75.696 49.7337 75.688 49.7448 75.68 49.7559ZM75.426 50.1014C77.3973 52.7889 80.5863 56.3177 83.9164 58.3766C85.6184 59.4289 87.3768 60.1095 89.0401 60.0785C90.7161 60.0472 92.272 59.2935 93.5511 57.5296C94.8531 55.7343 94.8376 53.2667 94.0122 50.5076C93.185 47.7426 91.5305 44.6349 89.4767 41.5063C85.3678 35.2469 79.6305 28.8591 75.5993 24.8878L75.5939 24.8936L75.4007 24.6876C71.3695 28.6588 65.6322 35.0467 61.5233 41.306C59.4696 44.4346 57.8151 47.5423 56.9879 50.3073C56.1624 53.0664 56.1469 55.5341 57.4489 57.3294C58.728 59.0932 60.2839 59.847 61.9599 59.8782C63.6232 59.9092 65.3816 59.2286 67.0836 58.1764C70.3317 56.1682 73.4454 52.7617 75.426 50.1014Z" fill="black"/>
<path fill-rule="evenodd" clip-rule="evenodd" d="M75.3849 62.6824C76.6708 63.8163 78.0541 64.8825 79.5047 65.7875C81.8584 67.2559 85.2282 68.8318 89.1459 68.7581C93.6098 68.6741 97.5535 66.4713 100.294 62.6574C104.014 57.4816 103.159 51.514 102.056 47.793C100.876 43.8154 98.7056 39.8624 96.4645 36.4174C91.9217 29.4342 85.7545 22.5324 81.4771 18.2804L81.4572 18.2606L75.6381 12.0001L75.3987 12.2381L75.3628 12.2024L74.4867 13.1447L69.5229 18.079C65.2455 22.331 59.0783 29.2328 54.5355 36.216C52.2944 39.6611 50.1237 43.6141 48.9445 47.5916C47.8413 51.3127 46.9859 57.2802 50.7056 62.4561C53.4465 66.2699 57.3902 68.4728 61.8541 68.5568C65.7718 68.6305 69.1416 67.0546 71.4953 65.5862C72.8607 64.7343 74.1656 63.7403 75.3849 62.6824Z" fill="black"/>
</g>
<defs>
<clipPath id="clip0_1_159">
<rect width="150" height="200" rx="20" fill="white"/>
</clipPath>
</defs>
</svg>
