<svg width="150" height="200" viewBox="0 0 150 200" fill="none" xmlns="http://www.w3.org/2000/svg">
<g clip-path="url(#clip0_1_163)">
<rect width="150" height="200" rx="20" fill="white"/>
<rect width="150" height="200" fill="white"/>
<path d="M52.2 99.9C53 99.5 53.9 99.2667 54.9 99.2C55.9 99.0667 56.9667 99 58.1 99H94.3C95.2333 99 96.2333 98.9667 97.3 98.9C98.3667 98.8333 99.3333 99.0333 100.2 99.5C101.4 100.167 102.1 101.233 102.3 102.7C102.5 104.1 102.367 105.7 101.9 107.5C101.5 109.233 100.867 111.1 100 113.1C99.1333 115.033 98.2333 116.9 97.3 118.7C96.3667 120.433 95.4667 122.033 94.6 123.5C93.7333 124.9 93.1333 125.967 92.8 126.7C91.7333 128.7 90.7333 130.533 89.8 132.2C88.9333 133.867 88.0667 135.533 87.2 137.2C86.4 138.867 85.5333 140.533 84.6 142.2C83.7333 143.867 82.7667 145.7 81.7 147.7C80.3667 150.433 78.8333 153.3 77.1 156.3C75.4333 159.233 73.8333 162 72.3 164.6C71.8333 165.4 71.3 166.2 70.7 167C70.1 167.8 69.4 168.467 68.6 169C67.8667 169.533 67 169.867 66 170C65.0667 170.133 64.0333 169.933 62.9 169.4C61.1667 168.467 60.0333 167.1 59.5 165.3C59.0333 163.5 59.2 161.833 60 160.3C61.2667 158.033 62.5 155.767 63.7 153.5C64.9 151.167 66.1 148.867 67.3 146.6C69.1 143.2 70.7667 139.933 72.3 136.8C73.9 133.667 75.6 130.4 77.4 127C77.9333 126 78.6667 124.8 79.6 123.4C80.5333 121.933 81.4 120.433 82.2 118.9C83.0667 117.367 83.7333 115.867 84.2 114.4C84.7333 112.867 84.9 111.533 84.7 110.4C82.3667 110.2 80.2333 110.133 78.3 110.2C76.4333 110.2 74.3667 110.2 72.1 110.2H62.4C61.2 110.2 59.9 110.233 58.5 110.3C57.1667 110.367 55.9 110.3 54.7 110.1C53.5 109.833 52.4667 109.333 51.6 108.6C50.8 107.867 50.3 106.667 50.1 105C49.9667 103.6 50.1 102.5 50.5 101.7C50.9 100.9 51.4667 100.3 52.2 99.9Z" fill="black"/>
<path d="M75.3635 53.1972C78.1627 69.6663 81.4918 71.7182 87.0322 77H63.0806C70.3668 70.0017 73.4686 65.1705 75.3635 53.1972Z" fill="black"/>
<path fill-rule="evenodd" clip-rule="evenodd" d="M75.6799 49.7559C77.6295 52.4335 80.8185 55.9761 84.1258 58.0209C85.7963 59.0537 87.4774 59.6921 89.0327 59.6631C90.5752 59.6343 92.0167 58.949 93.2257 57.2818C94.412 55.6461 94.4366 53.3435 93.6246 50.6294C92.8143 47.9211 91.1848 44.8526 89.1403 41.7382C85.0801 35.553 79.4132 29.2311 75.3989 25.2668C71.3982 29.2416 65.8522 35.4559 61.8596 41.5379C59.8152 44.6523 58.1856 47.7208 57.3754 50.4291C56.5634 53.1433 56.588 55.4459 57.7742 57.0816C58.9833 58.7488 60.4248 59.4341 61.9673 59.4628C63.5225 59.4918 65.2036 58.8534 66.8742 57.8206C70.2147 55.7553 73.4345 52.162 75.3783 49.4753L75.704 49.7227C75.696 49.7337 75.688 49.7448 75.6799 49.7559ZM75.426 50.1014C77.3973 52.7889 80.5862 56.3177 83.9164 58.3766C85.6184 59.4289 87.3768 60.1095 89.0401 60.0785C90.716 60.0472 92.2719 59.2935 93.5511 57.5296C94.853 55.7343 94.8376 53.2667 94.0121 50.5076C93.1849 47.7426 91.5304 44.6349 89.4767 41.5063C85.3678 35.2469 79.6305 28.8591 75.5993 24.8878L75.5939 24.8936L75.4007 24.6876C71.3695 28.6588 65.6322 35.0467 61.5233 41.306C59.4695 44.4346 57.815 47.5423 56.9878 50.3073C56.1624 53.0664 56.1469 55.5341 57.4489 57.3294C58.728 59.0932 60.2839 59.847 61.9599 59.8782C63.6232 59.9092 65.3816 59.2286 67.0836 58.1764C70.3316 56.1682 73.4454 52.7617 75.426 50.1014Z" fill="black"/>
<path fill-rule="evenodd" clip-rule="evenodd" d="M75.3849 62.6824C76.6708 63.8163 78.0541 64.8825 79.5047 65.7875C81.8584 67.2559 85.2282 68.8318 89.1459 68.7581C93.6098 68.6741 97.5535 66.4713 100.294 62.6574C104.014 57.4816 103.159 51.514 102.056 47.793C100.876 43.8154 98.7056 39.8624 96.4645 36.4174C91.9217 29.4342 85.7545 22.5324 81.4771 18.2804L81.4572 18.2606L75.6381 12.0001L75.3987 12.2381L75.3628 12.2024L74.4867 13.1447L69.5229 18.079C65.2455 22.331 59.0783 29.2328 54.5355 36.216C52.2944 39.6611 50.1237 43.6141 48.9445 47.5916C47.8413 51.3127 46.9859 57.2802 50.7056 62.4561C53.4465 66.2699 57.3902 68.4728 61.8541 68.5568C65.7718 68.6305 69.1416 67.0546 71.4953 65.5862C72.8607 64.7343 74.1656 63.7403 75.3849 62.6824Z" fill="black"/>
</g>
<defs>
<clipPath id="clip0_1_163">
<rect width="150" height="200" rx="20" fill="white"/>
</clipPath>
</defs>
</svg>
