<svg width="150" height="200" viewBox="0 0 150 200" fill="none" xmlns="http://www.w3.org/2000/svg">
<g clip-path="url(#clip0_1_171)">
<rect width="150" height="200" rx="20" fill="white"/>
<rect width="150" height="200" fill="white"/>
<path d="M73 170.2C69.9333 170.2 66.9667 169.867 64.1 169.2C61.3 168.467 58.7333 167.067 56.4 165C55.5333 164.2 54.7 163.3 53.9 162.3C53.1667 161.233 52.6333 160.2 52.3 159.2C52.0333 158.133 52.0667 157.1 52.4 156.1C52.7333 155.033 53.5667 154.1 54.9 153.3C55.7667 152.767 56.5333 152.5 57.2 152.5C57.9333 152.5 58.6 152.667 59.2 153C59.8667 153.333 60.4667 153.8 61 154.4C61.6 154.933 62.2 155.467 62.8 156C64.3333 157.267 65.9667 158.1 67.7 158.5C69.5 158.9 71.3667 159.1 73.3 159.1C75.5 159.1 77.5333 158.567 79.4 157.5C81.2667 156.433 82.8333 155.033 84.1 153.3C85.4333 151.567 86.4 149.6 87 147.4C87.6 145.2 87.7333 143 87.4 140.8C85.4667 141.933 83.2667 142.833 80.8 143.5C78.3333 144.1 75.9667 144.4 73.7 144.4C70.1 144.4 66.8333 143.9 63.9 142.9C61.0333 141.833 58.5667 140.367 56.5 138.5C54.4333 136.567 52.8333 134.233 51.7 131.5C50.5667 128.767 50 125.733 50 122.4C50 118.933 50.6 115.733 51.8 112.8C53 109.8 54.7 107.233 56.9 105.1C59.1 102.9 61.7333 101.2 64.8 100C67.8667 98.7333 71.2667 98.1 75 98.1C79.2667 98.1 82.8333 98.7333 85.7 100C88.6333 101.2 91.3 103.033 93.7 105.5C96.1667 108.1 97.9667 111.5 99.1 115.7C100.3 119.9 100.9 125.433 100.9 132.3C100.9 137.9 100.267 143.033 99 147.7C97.8 152.367 96.0333 156.367 93.7 159.7C91.3667 163.033 88.4333 165.633 84.9 167.5C81.4333 169.3 77.4667 170.2 73 170.2ZM75.3 110.2C74.1 110.133 72.9 110.2 71.7 110.4C70.5667 110.533 69.5333 110.767 68.6 111.1C66.8 111.833 65.3667 113.033 64.3 114.7C63.2333 116.3 62.5667 118.067 62.3 120C62.0333 121.933 62.1667 123.867 62.7 125.8C63.3 127.733 64.3333 129.333 65.8 130.6C67.0667 131.8 68.5667 132.6 70.3 133C72.0333 133.4 73.7667 133.5 75.5 133.3C77.3 133.1 79 132.6 80.6 131.8C82.2 131 83.5333 129.967 84.6 128.7C85.6667 127.433 86.3667 126.1 86.7 124.7C87.1 123.233 87.1667 121.8 86.9 120.4C86.7 118.933 86.2333 117.567 85.5 116.3C84.7667 114.967 83.8667 113.8 82.8 112.8C81.8667 112.067 80.7333 111.5 79.4 111.1C78.1333 110.633 76.7667 110.333 75.3 110.2Z" fill="black"/>
<path d="M75.3636 60.1972C78.1627 76.6663 81.4919 78.7182 87.0323 84H63.0807C70.3669 77.0017 73.4686 72.1705 75.3636 60.1972Z" fill="black"/>
<path fill-rule="evenodd" clip-rule="evenodd" d="M75.6799 56.7559C77.6295 59.4335 80.8185 62.9761 84.1258 65.0209C85.7963 66.0537 87.4774 66.6921 89.0327 66.6631C90.5752 66.6343 92.0167 65.949 93.2257 64.2818C94.412 62.6461 94.4366 60.3435 93.6246 57.6294C92.8143 54.9211 91.1848 51.8526 89.1403 48.7382C85.0801 42.553 79.4132 36.2311 75.3989 32.2668C71.3982 36.2416 65.8522 42.4559 61.8596 48.5379C59.8152 51.6523 58.1856 54.7208 57.3754 57.4291C56.5634 60.1433 56.588 62.4459 57.7742 64.0816C58.9833 65.7488 60.4248 66.4341 61.9673 66.4628C63.5225 66.4918 65.2036 65.8534 66.8742 64.8206C70.2147 62.7553 73.4345 59.162 75.3783 56.4753L75.704 56.7227C75.696 56.7337 75.688 56.7448 75.6799 56.7559ZM75.426 57.1014C77.3973 59.7889 80.5862 63.3177 83.9164 65.3766C85.6184 66.4289 87.3768 67.1095 89.0401 67.0785C90.716 67.0472 92.2719 66.2935 93.5511 64.5296C94.853 62.7343 94.8376 60.2667 94.0121 57.5076C93.1849 54.7426 91.5304 51.6349 89.4767 48.5063C85.3678 42.2469 79.6305 35.8591 75.5993 31.8878L75.5939 31.8936L75.4007 31.6876C71.3695 35.6588 65.6322 42.0467 61.5233 48.306C59.4695 51.4346 57.815 54.5423 56.9878 57.3073C56.1624 60.0664 56.1469 62.5341 57.4489 64.3294C58.728 66.0932 60.2839 66.847 61.9599 66.8782C63.6232 66.9092 65.3816 66.2286 67.0836 65.1764C70.3316 63.1682 73.4454 59.7617 75.426 57.1014Z" fill="black"/>
<path fill-rule="evenodd" clip-rule="evenodd" d="M75.3849 69.6824C76.6708 70.8163 78.0541 71.8825 79.5047 72.7875C81.8584 74.2559 85.2282 75.8318 89.1459 75.7581C93.6098 75.6741 97.5535 73.4713 100.294 69.6574C104.014 64.4816 103.159 58.514 102.056 54.793C100.876 50.8154 98.7056 46.8624 96.4645 43.4174C91.9217 36.4342 85.7545 29.5324 81.4771 25.2804L81.4572 25.2606L75.6381 19.0001L75.3987 19.2381L75.3628 19.2024L74.4867 20.1447L69.5229 25.079C65.2455 29.331 59.0783 36.2328 54.5355 43.216C52.2944 46.6611 50.1237 50.6141 48.9445 54.5916C47.8413 58.3127 46.9859 64.2802 50.7056 69.4561C53.4465 73.2699 57.3902 75.4728 61.8541 75.5568C65.7718 75.6305 69.1416 74.0546 71.4953 72.5862C72.8607 71.7343 74.1656 70.7403 75.3849 69.6824Z" fill="black"/>
</g>
<defs>
<clipPath id="clip0_1_171">
<rect width="150" height="200" rx="20" fill="white"/>
</clipPath>
</defs>
</svg>
