<svg width="150" height="200" viewBox="0 0 150 200" fill="none" xmlns="http://www.w3.org/2000/svg">
<g clip-path="url(#clip0_1_191)">
<rect width="150" height="200" rx="20" fill="white"/>
<rect width="150" height="200" fill="white"/>
<path d="M105.7 164.2C105.767 164.6 105.8 165 105.8 165.4C105.867 165.733 105.9 166.133 105.9 166.6C105.9 167.4 105.667 168.133 105.2 168.8C105 169.133 104.733 169.467 104.4 169.8C104.067 170.067 103.667 170.3 103.2 170.5C101.533 171.433 99.7667 171.767 97.9 171.5C96.9667 171.233 96.1333 170.8 95.4 170.2C95.2667 170.067 95.1667 170 95.1 170C95.0333 169.933 94.9667 169.833 94.9 169.7C94.8333 169.633 94.7667 169.567 94.7 169.5C94.6333 169.367 94.5333 169.267 94.4 169.2C94.0667 168.867 93.8 168.567 93.6 168.3C93.4 167.967 93.2 167.633 93 167.3C92.8667 166.967 92.7 166.667 92.5 166.4C92.3667 166.067 92.2 165.733 92 165.4C91.8667 165.133 91.7333 164.9 91.6 164.7C91.4667 164.433 91.3667 164.167 91.3 163.9C91.0333 163.3 90.8667 162.767 90.8 162.3L88.7 157.4C84.1 157.4 79.5 157.433 74.9 157.5C70.3667 157.5 65.8 157.467 61.2 157.4L59.1 162.3C58.9667 162.567 58.8667 162.833 58.8 163.1C58.8 163.367 58.7333 163.633 58.6 163.9C58.4667 164.167 58.3333 164.433 58.2 164.7C58.1333 164.9 58.0333 165.133 57.9 165.4C57.7 165.733 57.5 166.067 57.3 166.4C57.1667 166.667 57 166.967 56.8 167.3C56.6667 167.633 56.5 167.967 56.3 168.3C56.1 168.567 55.8333 168.867 55.5 169.2C55.3667 169.267 55.2667 169.367 55.2 169.5C55.1333 169.567 55.0667 169.633 55 169.7C54.9333 169.833 54.8667 169.933 54.8 170C54.7333 170 54.6333 170.067 54.5 170.2C53.7667 170.8 52.9333 171.233 52 171.5C50.1333 171.767 48.3667 171.433 46.7 170.5C46.2333 170.3 45.8333 170.067 45.5 169.8C45.1667 169.467 44.9 169.133 44.7 168.8C44.2333 168.133 44 167.4 44 166.6C44 166.133 44 165.733 44 165.4C44.0667 165 44.1333 164.6 44.2 164.2C44.3333 163.6 44.5 163 44.7 162.4C44.9 161.8 45 161.5 45 161.5L65.8 110.3L66.4 108.7C66.5333 108.3 66.7 107.933 66.9 107.6C67.1 107.267 67.2667 106.867 67.4 106.4C67.7333 105.533 68.1 104.767 68.5 104.1C68.7 103.7 68.9333 103.333 69.2 103C69.4667 102.667 69.7333 102.333 70 102C70.4 101.467 70.9667 101.033 71.7 100.7C72.6333 100.367 73.7 100.2 74.9 100.2C76.1667 100.2 77.2667 100.367 78.2 100.7C78.9333 101.033 79.5 101.467 79.9 102C80.3667 102.6 80.8667 103.3 81.4 104.1C81.8 104.767 82.1667 105.533 82.5 106.4C82.6333 106.867 82.8 107.267 83 107.6C83.2 107.933 83.3667 108.3 83.5 108.7L84.1 110.3L104.9 161.5C104.9 161.5 105 161.8 105.2 162.4C105.4 163 105.567 163.6 105.7 164.2ZM82 139.7C81.1333 137.767 80.2333 135.767 79.3 133.7C78.4333 131.633 77.5 129.533 76.5 127.4C76.2333 126.8 75.9667 126.2 75.7 125.6C75.4333 124.933 75.1667 124.3 74.9 123.7C74.7 124.3 74.4667 124.933 74.2 125.6C73.9333 126.2 73.6667 126.8 73.4 127.4C72.4 129.533 71.4333 131.633 70.5 133.7C69.6333 135.767 68.7667 137.767 67.9 139.7L66.1 144.1H83.8L82 139.7Z" fill="black"/>
<path d="M75.3636 60.1972C78.1627 76.6663 81.4919 78.7182 87.0323 84H63.0807C70.3669 77.0017 73.4686 72.1705 75.3636 60.1972Z" fill="black"/>
<path fill-rule="evenodd" clip-rule="evenodd" d="M75.6799 56.7559C77.6295 59.4335 80.8185 62.9761 84.1258 65.0209C85.7963 66.0537 87.4774 66.6921 89.0327 66.6631C90.5752 66.6343 92.0167 65.949 93.2257 64.2818C94.412 62.6461 94.4366 60.3435 93.6246 57.6294C92.8143 54.9211 91.1848 51.8526 89.1403 48.7382C85.0801 42.553 79.4132 36.2311 75.3989 32.2668C71.3982 36.2416 65.8522 42.4559 61.8596 48.5379C59.8152 51.6523 58.1856 54.7208 57.3754 57.4291C56.5634 60.1433 56.588 62.4459 57.7742 64.0816C58.9833 65.7488 60.4248 66.4341 61.9673 66.4628C63.5225 66.4918 65.2036 65.8534 66.8742 64.8206C70.2147 62.7553 73.4345 59.162 75.3783 56.4753L75.704 56.7227C75.696 56.7337 75.688 56.7448 75.6799 56.7559ZM75.426 57.1014C77.3973 59.7889 80.5862 63.3177 83.9164 65.3766C85.6184 66.4289 87.3768 67.1095 89.0401 67.0785C90.716 67.0472 92.2719 66.2935 93.5511 64.5296C94.853 62.7343 94.8376 60.2667 94.0121 57.5076C93.1849 54.7426 91.5304 51.6349 89.4767 48.5063C85.3678 42.2469 79.6305 35.8591 75.5993 31.8878L75.5939 31.8936L75.4007 31.6876C71.3695 35.6588 65.6322 42.0467 61.5233 48.306C59.4695 51.4346 57.815 54.5423 56.9878 57.3073C56.1624 60.0664 56.1469 62.5341 57.4489 64.3294C58.728 66.0932 60.2839 66.847 61.9599 66.8782C63.6232 66.9092 65.3816 66.2286 67.0836 65.1764C70.3316 63.1682 73.4454 59.7617 75.426 57.1014Z" fill="black"/>
<path fill-rule="evenodd" clip-rule="evenodd" d="M75.3849 69.6824C76.6708 70.8163 78.0541 71.8825 79.5047 72.7875C81.8584 74.2559 85.2282 75.8318 89.1459 75.7581C93.6098 75.6741 97.5535 73.4713 100.294 69.6574C104.014 64.4816 103.159 58.514 102.056 54.793C100.876 50.8154 98.7056 46.8624 96.4645 43.4174C91.9217 36.4342 85.7545 29.5324 81.4771 25.2804L81.4572 25.2606L75.6381 19.0001L75.3987 19.2381L75.3628 19.2024L74.4867 20.1447L69.5229 25.079C65.2455 29.331 59.0783 36.2328 54.5355 43.216C52.2944 46.6611 50.1237 50.6141 48.9445 54.5916C47.8413 58.3127 46.9859 64.2802 50.7056 69.4561C53.4465 73.2699 57.3902 75.4728 61.8541 75.5568C65.7718 75.6305 69.1416 74.0546 71.4953 72.5862C72.8607 71.7343 74.1656 70.7403 75.3849 69.6824Z" fill="black"/>
</g>
<defs>
<clipPath id="clip0_1_191">
<rect width="150" height="200" rx="20" fill="white"/>
</clipPath>
</defs>
</svg>
