<svg width="150" height="200" viewBox="0 0 150 200" fill="none" xmlns="http://www.w3.org/2000/svg">
<g clip-path="url(#clip0_12_7)">
<rect width="150" height="200" rx="20" fill="white"/>
<rect width="150" height="200" fill="white"/>
<path d="M75.5 135.438C43.2569 135.438 18 119.654 18 99.5C18 79.3463 43.2569 63.5625 75.5 63.5625C107.743 63.5625 133 79.3463 133 99.5C133 119.654 107.743 135.438 75.5 135.438ZM75.5 70.75C48.2306 70.75 25.1875 83.9175 25.1875 99.5C25.1875 115.083 48.2306 128.25 75.5 128.25C102.769 128.25 125.812 115.083 125.812 99.5C125.812 83.9175 102.769 70.75 75.5 70.75Z" fill="black"/>
<path d="M75.5 98.4746C56.2423 98.4746 36.7498 92.4802 36.7498 81.0185C36.7498 69.5569 56.2423 63.5625 75.5 63.5625C94.7577 63.5625 114.25 69.5569 114.25 81.0185C114.25 92.4802 94.7577 98.4746 75.5 98.4746ZM75.5 70.75C56.2327 70.75 43.9373 76.8306 43.9373 81.0185C43.9373 85.2065 56.2327 91.2871 75.5 91.2871C94.7673 91.2871 107.063 85.2065 107.063 81.0185C107.063 76.8306 94.7673 70.75 75.5 70.75Z" fill="black"/>
<path d="M75.4999 135.438C65.4327 135.438 57.8427 119.989 57.8427 99.5C57.8427 79.0108 65.4327 63.5625 75.4999 63.5625C85.5672 63.5625 93.1572 79.0108 93.1572 99.5C93.1572 119.989 85.5672 135.438 75.4999 135.438ZM75.4999 70.75C71.2306 70.75 65.0302 81.9481 65.0302 99.5C65.0302 117.052 71.2306 128.25 75.4999 128.25C79.7693 128.25 85.9697 117.052 85.9697 99.5C85.9697 81.9481 79.7693 70.75 75.4999 70.75Z" fill="black"/>
</g>
<defs>
<clipPath id="clip0_12_7">
<rect width="150" height="200" rx="20" fill="white"/>
</clipPath>
</defs>
</svg>
