<svg width="150" height="200" viewBox="0 0 150 200" fill="none" xmlns="http://www.w3.org/2000/svg">
<g clip-path="url(#clip0_1_179)">
<rect width="150" height="200" rx="20" fill="white"/>
<rect width="150" height="200" fill="white"/>
<path d="M101.9 102.7C102.567 103.567 102.9 104.433 102.9 105.3C102.967 105.7 102.967 106.2 102.9 106.8C102.9 107.4 102.867 107.867 102.8 108.2C102.6 108.867 102.133 109.533 101.4 110.2C101.2 110.4 100.967 110.6 100.7 110.8C100.433 110.933 100.1 111.067 99.7 111.2C99.3 111.333 98.9 111.433 98.5 111.5C98.1 111.5 97.6667 111.533 97.2 111.6C96.7333 111.667 96.3 111.733 95.9 111.8C95.5 111.8 95.0667 111.8 94.6 111.8H88.9V113.5C88.8333 119.5 88.9333 125.5 89.2 131.5C89.5333 137.5 89.5 143.5 89.1 149.5C88.9 151.5 88.6 153.567 88.2 155.7C87.8 157.767 87.1333 159.733 86.2 161.6C85.3333 163.4 84.1667 165.067 82.7 166.6C81.2333 168.133 79.3667 169.333 77.1 170.2C74.9667 171 72.6333 171.567 70.1 171.9C67.5667 172.233 65 172.267 62.4 172C59.8667 171.733 57.4333 171.167 55.1 170.3C52.7667 169.433 50.8 168.233 49.2 166.7C48.3333 165.9 47.5333 164.933 46.8 163.8C46.0667 162.6 45.5667 161.367 45.3 160.1C45.0333 158.767 45.1 157.5 45.5 156.3C45.9 155.033 46.8333 154 48.3 153.2C49.5667 152.467 50.7 152.3 51.7 152.7C52.7667 153.1 53.7667 153.733 54.7 154.6C55.7 155.467 56.7 156.367 57.7 157.3C58.7667 158.233 59.9333 158.833 61.2 159.1C63.9333 159.767 66.1667 159.8 67.9 159.2C69.6333 158.533 71 157.5 72 156.1C73 154.7 73.7 153 74.1 151C74.5667 149 74.8333 146.967 74.9 144.9C75.0333 142.833 75.0667 140.833 75 138.9C74.9333 136.967 74.9333 135.333 75 134C75.0667 130.467 75.0667 127 75 123.6C74.9333 120.2 74.9 116.733 74.9 113.2V112.8C74.9667 112.667 75 112.467 75 112.2H74.7C74.3 112.133 73.4667 112.1 72.2 112.1C70.9333 112.033 69.5667 112 68.1 112C66.6333 112 65.2333 112 63.9 112C62.6333 111.933 61.8 111.9 61.4 111.9H60V111.8C59.4667 111.733 58.9333 111.633 58.4 111.5C57.8667 111.367 57.3333 111.233 56.8 111.1C55.5333 110.7 54.5667 110.067 53.9 109.2C53.5667 108.867 53.3 108.333 53.1 107.6C52.9667 106.867 52.9 106.233 52.9 105.7C52.9 105.367 52.9 105 52.9 104.6C52.9 104.2 52.9667 103.833 53.1 103.5C53.2333 102.767 53.7 102.1 54.5 101.5C55.0333 101.1 55.6667 100.8 56.4 100.6C56.8667 100.467 57.3333 100.367 57.8 100.3C58.2667 100.233 58.7667 100.167 59.3 100.1C59.7667 100.033 60.2333 100 60.7 100C61.1667 100 61.6667 100 62.2 100H71.8C72.2 100 72.6667 100 73.2 100C73.7333 100 74.3333 99.9667 75 99.9C77.6 99.9 80.1667 99.9 82.7 99.9C85.2333 99.9 87.7 99.9333 90.1 100H90.7C91.4333 100 92.1333 100.033 92.8 100.1C93.5333 100.1 94.2667 100.1 95 100.1C96.5333 100.167 97.9667 100.467 99.3 101C100.367 101.267 101.233 101.833 101.9 102.7Z" fill="black"/>
<path d="M75.3636 60.1972C78.1627 76.6663 81.4919 78.7182 87.0323 84H63.0807C70.3669 77.0017 73.4686 72.1705 75.3636 60.1972Z" fill="black"/>
<path fill-rule="evenodd" clip-rule="evenodd" d="M75.6799 56.7559C77.6295 59.4335 80.8185 62.9761 84.1258 65.0209C85.7963 66.0537 87.4774 66.6921 89.0327 66.6631C90.5752 66.6343 92.0167 65.949 93.2257 64.2818C94.412 62.6461 94.4366 60.3435 93.6246 57.6294C92.8143 54.9211 91.1848 51.8526 89.1403 48.7382C85.0801 42.553 79.4132 36.2311 75.3989 32.2668C71.3982 36.2416 65.8522 42.4559 61.8596 48.5379C59.8152 51.6523 58.1856 54.7208 57.3754 57.4291C56.5634 60.1433 56.588 62.4459 57.7742 64.0816C58.9833 65.7488 60.4248 66.4341 61.9673 66.4628C63.5225 66.4918 65.2036 65.8534 66.8742 64.8206C70.2147 62.7553 73.4345 59.162 75.3783 56.4753L75.704 56.7227C75.696 56.7337 75.688 56.7448 75.6799 56.7559ZM75.426 57.1014C77.3973 59.7889 80.5862 63.3177 83.9164 65.3766C85.6184 66.4289 87.3768 67.1095 89.0401 67.0785C90.716 67.0472 92.2719 66.2935 93.5511 64.5296C94.853 62.7343 94.8376 60.2667 94.0121 57.5076C93.1849 54.7426 91.5304 51.6349 89.4767 48.5063C85.3678 42.2469 79.6305 35.8591 75.5993 31.8878L75.5939 31.8936L75.4007 31.6876C71.3695 35.6588 65.6322 42.0467 61.5233 48.306C59.4695 51.4346 57.815 54.5423 56.9878 57.3073C56.1624 60.0664 56.1469 62.5341 57.4489 64.3294C58.728 66.0932 60.2839 66.847 61.9599 66.8782C63.6232 66.9092 65.3816 66.2286 67.0836 65.1764C70.3316 63.1682 73.4454 59.7617 75.426 57.1014Z" fill="black"/>
<path fill-rule="evenodd" clip-rule="evenodd" d="M75.3849 69.6824C76.6708 70.8163 78.0541 71.8825 79.5047 72.7875C81.8584 74.2559 85.2282 75.8318 89.1459 75.7581C93.6098 75.6741 97.5535 73.4713 100.294 69.6574C104.014 64.4816 103.159 58.514 102.056 54.793C100.876 50.8154 98.7056 46.8624 96.4645 43.4174C91.9217 36.4342 85.7545 29.5324 81.4771 25.2804L81.4572 25.2606L75.6381 19.0001L75.3987 19.2381L75.3628 19.2024L74.4867 20.1447L69.5229 25.079C65.2455 29.331 59.0783 36.2328 54.5355 43.216C52.2944 46.6611 50.1237 50.6141 48.9445 54.5916C47.8413 58.3127 46.9859 64.2802 50.7056 69.4561C53.4465 73.2699 57.3902 75.4728 61.8541 75.5568C65.7718 75.6305 69.1416 74.0546 71.4953 72.5862C72.8607 71.7343 74.1656 70.7403 75.3849 69.6824Z" fill="black"/>
</g>
<defs>
<clipPath id="clip0_1_179">
<rect width="150" height="200" rx="20" fill="white"/>
</clipPath>
</defs>
</svg>
