<svg width="150" height="200" viewBox="0 0 150 200" fill="none" xmlns="http://www.w3.org/2000/svg">
<g clip-path="url(#clip0_1_183)">
<rect width="150" height="200" rx="20" fill="white"/>
<rect width="150" height="200" fill="white"/>
<path d="M103.1 163.9C103.367 164.367 103.533 164.867 103.6 165.4C103.667 165.867 103.667 166.333 103.6 166.8C103.533 167.733 103.167 168.567 102.5 169.3C102.033 169.833 101.467 170.333 100.8 170.8C100.267 171.133 99.5333 171.3 98.6 171.3C97.8667 171.3 97.2 171.167 96.6 170.9C95.8 170.567 95.1 170.133 94.5 169.6C93.7667 169.2 93.0667 168.7 92.4 168.1L89.6 165.7C88.4667 166.767 87.2 167.667 85.8 168.4C84.4667 169.133 83.0667 169.733 81.6 170.2C79.4667 170.867 77.2667 171.233 75 171.3C72.8 171.433 70.6 171.233 68.4 170.7C66.2 170.167 64.0667 169.333 62 168.2C60 167.067 58.1667 165.6 56.5 163.8C54.5 161.733 52.8667 159.367 51.6 156.7C50.3333 153.967 49.3333 151.133 48.6 148.2C47.8667 145.267 47.4 142.3 47.2 139.3C47 136.3 47 133.467 47.2 130.8C47.4 128.267 47.8 125.533 48.4 122.6C49 119.6 49.9 116.733 51.1 114C52.3667 111.267 53.9333 108.833 55.8 106.7C57.7333 104.567 60.0667 103.1 62.8 102.3C69.4 100.233 75 99.8667 79.6 101.2C84.2 102.467 87.9667 104.767 90.9 108.1C93.2333 110.767 95.0667 113.9 96.4 117.5C97.8 121.1 98.7333 124.867 99.2 128.8C99.7333 132.733 99.8667 136.7 99.6 140.7C99.3333 144.633 98.7333 148.3 97.8 151.7L96 156.5C97 157.433 97.9333 158.3 98.8 159.1C99.7333 159.833 100.333 160.367 100.6 160.7C101.067 161.167 101.5 161.667 101.9 162.2C102.367 162.667 102.767 163.233 103.1 163.9ZM64.3 153.5C66.3 156.1 68.7 157.667 71.5 158.2C74.3667 158.667 77.0333 158.167 79.5 156.7C78.5667 155.767 77.7 154.933 76.9 154.2C76.1 153.467 75.6 152.967 75.4 152.7C74.4 151.7 73.6333 150.5 73.1 149.1C72.5667 148.033 72.4 147.033 72.6 146.1C72.8 145.033 73.2333 144.133 73.9 143.4C74.2333 143.133 74.5333 142.9 74.8 142.7C75.0667 142.433 75.3667 142.2 75.7 142C76.0333 141.8 76.4 141.667 76.8 141.6C77.2667 141.533 77.7333 141.5 78.2 141.5C78.8667 141.5 79.5333 141.733 80.2 142.2C80.8 142.533 81.5 142.967 82.3 143.5C82.6333 143.833 82.9667 144.167 83.3 144.5C83.7 144.767 84.0667 145.067 84.4 145.4C84.6667 145.667 84.9333 145.933 85.2 146.2C85.4667 146.4 85.7667 146.633 86.1 146.9C86.5667 144.7 86.9 142.367 87.1 139.9C87.3667 137.433 87.4 134.967 87.2 132.5C87 129.967 86.5333 127.5 85.8 125.1C85.0667 122.633 84.0333 120.333 82.7 118.2C81.1 115.667 79.0667 113.967 76.6 113.1C74.1333 112.167 71.1333 112.567 67.6 114.3C66.2 115.033 65 116.1 64 117.5C63.0667 118.833 62.2667 120.367 61.6 122.1C60.9333 123.767 60.4 125.5 60 127.3C59.6667 129.1 59.4667 130.8 59.4 132.4C59.3333 134.133 59.3333 135.967 59.4 137.9C59.5333 139.767 59.7667 141.667 60.1 143.6C60.5 145.467 61.0333 147.267 61.7 149C62.3667 150.667 63.2333 152.167 64.3 153.5Z" fill="black"/>
<path d="M75.3636 60.1972C78.1627 76.6663 81.4919 78.7182 87.0323 84H63.0807C70.3669 77.0017 73.4686 72.1705 75.3636 60.1972Z" fill="black"/>
<path fill-rule="evenodd" clip-rule="evenodd" d="M75.6799 56.7559C77.6295 59.4335 80.8185 62.9761 84.1258 65.0209C85.7963 66.0537 87.4774 66.6921 89.0327 66.6631C90.5752 66.6343 92.0167 65.949 93.2257 64.2818C94.412 62.6461 94.4366 60.3435 93.6246 57.6294C92.8143 54.9211 91.1848 51.8526 89.1403 48.7382C85.0801 42.553 79.4132 36.2311 75.3989 32.2668C71.3982 36.2416 65.8522 42.4559 61.8596 48.5379C59.8152 51.6523 58.1856 54.7208 57.3754 57.4291C56.5634 60.1433 56.588 62.4459 57.7742 64.0816C58.9833 65.7488 60.4248 66.4341 61.9673 66.4628C63.5225 66.4918 65.2036 65.8534 66.8742 64.8206C70.2147 62.7553 73.4345 59.162 75.3783 56.4753L75.704 56.7227C75.696 56.7337 75.688 56.7448 75.6799 56.7559ZM75.426 57.1014C77.3973 59.7889 80.5862 63.3177 83.9164 65.3766C85.6184 66.4289 87.3768 67.1095 89.0401 67.0785C90.716 67.0472 92.2719 66.2935 93.5511 64.5296C94.853 62.7343 94.8376 60.2667 94.0121 57.5076C93.1849 54.7426 91.5304 51.6349 89.4767 48.5063C85.3678 42.2469 79.6305 35.8591 75.5993 31.8878L75.5939 31.8936L75.4007 31.6876C71.3695 35.6588 65.6322 42.0467 61.5233 48.306C59.4695 51.4346 57.815 54.5423 56.9878 57.3073C56.1624 60.0664 56.1469 62.5341 57.4489 64.3294C58.728 66.0932 60.2839 66.847 61.9599 66.8782C63.6232 66.9092 65.3816 66.2286 67.0836 65.1764C70.3316 63.1682 73.4454 59.7617 75.426 57.1014Z" fill="black"/>
<path fill-rule="evenodd" clip-rule="evenodd" d="M75.3849 69.6824C76.6708 70.8163 78.0541 71.8825 79.5047 72.7875C81.8584 74.2559 85.2282 75.8318 89.1459 75.7581C93.6098 75.6741 97.5535 73.4713 100.294 69.6574C104.014 64.4816 103.159 58.514 102.056 54.793C100.876 50.8154 98.7056 46.8624 96.4645 43.4174C91.9217 36.4342 85.7545 29.5324 81.4771 25.2804L81.4572 25.2606L75.6381 19.0001L75.3987 19.2381L75.3628 19.2024L74.4867 20.1447L69.5229 25.079C65.2455 29.331 59.0783 36.2328 54.5355 43.216C52.2944 46.6611 50.1237 50.6141 48.9445 54.5916C47.8413 58.3127 46.9859 64.2802 50.7056 69.4561C53.4465 73.2699 57.3902 75.4728 61.8541 75.5568C65.7718 75.6305 69.1416 74.0546 71.4953 72.5862C72.8607 71.7343 74.1656 70.7403 75.3849 69.6824Z" fill="black"/>
</g>
<defs>
<clipPath id="clip0_1_183">
<rect width="150" height="200" rx="20" fill="white"/>
</clipPath>
</defs>
</svg>
